<svg id="profile" xmlns="http://www.w3.org/2000/svg" width="30" height="30" viewBox="0 0 30 30">
  <g id="Ellipse_6186" data-name="Ellipse 6186" fill="#fff" stroke="#f3f3f3" stroke-width="1">
    <circle cx="15" cy="15" r="15" stroke="none"/>
    <circle cx="15" cy="15" r="14.5" fill="none"/>
  </g>
  <g id="about" transform="translate(8.594 8.594)">
    <path id="Path_22735" data-name="Path 22735" d="M6.406,12.812A6.406,6.406,0,0,1,1.876,1.876a6.406,6.406,0,0,1,9.059,9.059,6.364,6.364,0,0,1-4.53,1.876ZM6.406.8a5.605,5.605,0,1,0,5.605,5.605A5.611,5.611,0,0,0,6.406.8Z" transform="translate(0 0)" fill="#3b3b3b" stroke="#3b3b3b" stroke-width="0.3"/>
    <path id="Path_22736" data-name="Path 22736" d="M177.738,101.908a.348.348,0,0,1-.348-.348,3.262,3.262,0,0,1,.962-2.322,2.042,2.042,0,0,0,.6-1.453,1.091,1.091,0,0,0-1.09-1.09h-.079a1.091,1.091,0,0,0-1.09,1.09v.126a.348.348,0,1,1-.7,0v-.126A1.787,1.787,0,0,1,177.785,96h.079a1.787,1.787,0,0,1,1.785,1.785,2.732,2.732,0,0,1-.806,1.945,2.572,2.572,0,0,0-.758,1.831A.348.348,0,0,1,177.738,101.908Z" transform="translate(-171.319 -93.043)" fill="#28c1ed" stroke="#28c1ed" stroke-width="0.3"/>
    <path id="Path_22737" data-name="Path 22737" d="M240.363,400.7a.348.348,0,0,1,0-.7h0a.348.348,0,0,1,0,.7Z" transform="translate(-233.943 -390.44)" fill="#28c1ed" stroke="#28c1ed" stroke-width="0.3"/>
  </g>
</svg>
