<svg xmlns="http://www.w3.org/2000/svg" width="25.356" height="23.29" viewBox="0 0 25.356 23.29">
  <g id="svgexport-11_1_" data-name="svgexport-11 (1)" transform="translate(0.051 -20.81)">
    <path id="Path_36204" data-name="Path 36204" d="M6.714,35.728H21.171a2.067,2.067,0,0,0,2.013-1.581l2.1-8.634a.594.594,0,0,0-.577-.735H5.341L4.5,21.267a.594.594,0,0,0-.578-.457H1.439a.594.594,0,1,0,0,1.188H3.458l.662,2.78H.543a.594.594,0,1,0,0,1.188H23.955l-1.925,7.9a.871.871,0,0,1-.859.674H6.714a2.3,2.3,0,0,0,0,4.59h.215a2.587,2.587,0,1,0,2.009,0h11.39a2.587,2.587,0,1,0,2.009,0h.849a.594.594,0,0,0,0-1.188H6.714a1.107,1.107,0,0,1,0-2.214Zm1.22,7.184a1.4,1.4,0,1,1,1.4-1.4A1.4,1.4,0,0,1,7.934,42.912Zm13.4,0a1.4,1.4,0,1,1,1.4-1.4A1.4,1.4,0,0,1,21.333,42.912ZM4.178,29.221a.594.594,0,1,1,0-1.188h7.257a.594.594,0,1,1,0,1.188Zm3.967,3.254H.95a.594.594,0,0,1,0-1.188H8.145a.594.594,0,0,1,0,1.188Z" fill="#999"/>
  </g>
</svg>
