<svg id="notifi" xmlns="http://www.w3.org/2000/svg" width="32" height="32" viewBox="0 0 32 32">
  <circle id="Ellipse_6162" data-name="Ellipse 6162" cx="16" cy="16" r="16" fill="#f3f3f3" opacity="0.08"/>
  <g id="Icon_ionic-ios-cart" data-name="Icon ionic-ios-cart" transform="translate(3.553 3.134)">
    <path id="Path_36198" data-name="Path 36198" d="M11.655,29.171a1.046,1.046,0,1,1-1.046-1.046A1.046,1.046,0,0,1,11.655,29.171Z" transform="translate(-2.348 -8.979)" fill="#fff"/>
    <path id="Path_36199" data-name="Path 36199" d="M27.44,29.171a1.046,1.046,0,1,1-1.046-1.046,1.046,1.046,0,0,1,1.046,1.046Z" transform="translate(-8.345 -8.979)" fill="#fff"/>
    <path id="Path_36200" data-name="Path 36200" d="M21.506,7.471a.256.256,0,0,0-.227-.183L7.079,5.914a.437.437,0,0,1-.327-.2A4.44,4.44,0,0,0,6.22,4.9c-.336-.41-.968-.4-2.128-.405a.635.635,0,0,0-.711.615.623.623,0,0,0,.68.615A5.793,5.793,0,0,1,5.2,5.805c.2.061.371.4.432.689a.016.016,0,0,0,0,.013c.009.052.087.445.087.449l1.744,9.225A3.39,3.39,0,0,0,8.1,17.738a1.74,1.74,0,0,0,1.434.706H19.845a.62.62,0,0,0,.628-.584.607.607,0,0,0-.61-.637H9.521a.507.507,0,0,1-.362-.122,1.956,1.956,0,0,1-.5-1.134L8.47,14.935a.024.024,0,0,1,.017-.026l12.107-2.049a.255.255,0,0,0,.214-.227l.7-5.049A.249.249,0,0,0,21.506,7.471Z" fill="#fff"/>
  </g>
</svg>
