<svg xmlns="http://www.w3.org/2000/svg" width="149" height="114.943" viewBox="0 0 149 114.943">
  <g id="code" transform="translate(0 -6.605)">
    <g id="Group_597" data-name="Group 597" transform="translate(5.803 0)">
      <circle id="Ellipse_27" data-name="Ellipse 27" cx="50.347" cy="50.347" r="50.347" transform="translate(20.854 20.854)" fill="#28c1ed" opacity="0.2"/>
      <path id="Path_434" data-name="Path 434" d="M193.033,194.983V211.91a50.646,50.646,0,0,0,6.248,7.267V194.983h.01v-.057c.029-.125,3.067-2.644,5.4-4.556v-1.058l-2.826-.73a5.368,5.368,0,0,0-3.469.269c-.491.211-1,.413-1.509.577v2.211a49.343,49.343,0,0,0-3.845,3.287v.057Z" transform="translate(-162.952 -111.679)" fill="#a82424" opacity="0.3"/>
      <g id="Group_25835" data-name="Group 25835" transform="translate(23.793 7.625)">
        <path id="Path_24596" data-name="Path 24596" d="M209.769,161.516a28.991,28.991,0,0,0-2.693-15.254c-6.011-12.227-4.632-13.115-4.819-25.25a4.489,4.489,0,0,0-8.978,0v45.134a9.953,9.953,0,0,1-.213,2.042v6.461a9.886,9.886,0,0,1-9.874,9.875H158.621a34.865,34.865,0,0,0,14.932,11.85l.112.046a14.639,14.639,0,0,1,7.809,7.88,54.2,54.2,0,0,0,30.862-12.211L208.99,179.8a15.69,15.69,0,0,1-.5-5.4Zm0,0" transform="translate(-131.812 -90.623)" fill="#f9cfa9"/>
        <path id="Path_24597" data-name="Path 24597" d="M48.144,107.947l-1.367-1.267a5.224,5.224,0,1,0-7.1,7.664l8.469,7.847Zm0,0" transform="translate(-38.008 -81.891)" fill="#f9cfa9"/>
        <path id="Path_24598" data-name="Path 24598" d="M127.659,0H89.27a6.763,6.763,0,0,0-6.755,6.756v80.9a6.763,6.763,0,0,0,6.755,6.756h38.389a6.764,6.764,0,0,0,6.756-6.756V6.756A6.764,6.764,0,0,0,127.659,0Zm0,0" transform="translate(-72.623)" fill="#414141"/>
        <path id="Path_24599" data-name="Path 24599" d="M95.519,5.01A3.412,3.412,0,0,1,96.944,0H89.267a6.756,6.756,0,0,0-6.756,6.756v80.9a6.755,6.755,0,0,0,6.756,6.755h8.161V10.93a10.638,10.638,0,0,0-1.909-5.92Zm0,0" transform="translate(-72.62 0)" fill="#414141"/>
        <path id="Path_24600" data-name="Path 24600" d="M100.109,191.977v44.986a2.845,2.845,0,0,0,2.844,2.845h38.389a2.845,2.845,0,0,0,2.844-2.845V191.977Zm0,0" transform="translate(-86.306 -149.307)" fill="#fff"/>
        <path id="Path_24601" data-name="Path 24601" d="M100.109,191.977v44.986a2.845,2.845,0,0,0,2.844,2.845h6.729V191.977Zm0,0" transform="translate(-86.306 -149.307)" fill="#28c1ed"/>
        <path id="Path_24602" data-name="Path 24602" d="M138.488,237.434a4.457,4.457,0,1,1-4.457-4.458A4.457,4.457,0,0,1,138.488,237.434Zm0,0" transform="translate(-109.222 -181.193)" fill="#585858"/>
        <path id="Path_24603" data-name="Path 24603" d="M138.488,311.789a4.457,4.457,0,1,1-4.457-4.457A4.457,4.457,0,0,1,138.488,311.789Zm0,0" transform="translate(-109.222 -239.022)" fill="#585858"/>
        <path id="Path_24604" data-name="Path 24604" d="M133.527,233.113a4.456,4.456,0,1,0,4.193,6.927A4.46,4.46,0,0,1,133.527,233.113Zm0,0" transform="translate(-109.221 -181.299)" fill="#414141"/>
        <path id="Path_24605" data-name="Path 24605" d="M133.527,307.469a4.456,4.456,0,1,0,4.193,6.927A4.459,4.459,0,0,1,133.527,307.469Zm0,0" transform="translate(-109.221 -239.128)" fill="#414141"/>
        <g id="Group_20469" data-name="Group 20469" transform="translate(35.027 51.054)">
          <path id="Path_24606" data-name="Path 24606" d="M203.592,233.029h-6.328a1.667,1.667,0,0,1,0-3.334h6.328a1.667,1.667,0,0,1,0,3.334Zm0,0" transform="translate(-195.597 -229.695)" fill="#8a8a8a"/>
          <path id="Path_24607" data-name="Path 24607" d="M209.92,264.7H197.265a1.667,1.667,0,1,1,0-3.334H209.92a1.667,1.667,0,1,1,0,3.334Zm0,0" transform="translate(-195.597 -254.327)" fill="#8a8a8a"/>
          <path id="Path_24608" data-name="Path 24608" d="M203.592,307.381h-6.328a1.667,1.667,0,0,1,0-3.334h6.328a1.667,1.667,0,0,1,0,3.334Zm0,0" transform="translate(-195.597 -287.521)" fill="#8a8a8a"/>
          <path id="Path_24609" data-name="Path 24609" d="M209.92,339.053H197.265a1.667,1.667,0,1,1,0-3.334H209.92a1.667,1.667,0,1,1,0,3.334Zm0,0" transform="translate(-195.597 -312.153)" fill="#8a8a8a"/>
        </g>
        <path id="Path_24610" data-name="Path 24610" d="M141.241,17.6h-5.705a.974.974,0,0,0-.974.973,2.353,2.353,0,0,1-2.346,2.347H111.88a2.353,2.353,0,0,1-2.347-2.347.974.974,0,0,0-.974-.973h-5.705a2.845,2.845,0,0,0-2.845,2.844V56.8h44.079V20.442a2.845,2.845,0,0,0-2.845-2.844Zm0,0" transform="translate(-86.227 -13.686)" fill="#28c1ed"/>
        <path id="Path_24611" data-name="Path 24611" d="M109.6,19.134a2.311,2.311,0,0,1-.071-.562.974.974,0,0,0-.974-.974h-5.705a2.845,2.845,0,0,0-2.845,2.844V56.8h9.6Zm0,0" transform="translate(-86.227 -13.686)" fill="#28c1ed"/>
        <path id="Path_24612" data-name="Path 24612" d="M214.692,17.6h-5.705a.974.974,0,0,0-.974.973,2.353,2.353,0,0,1-2.346,2.347H194.45l23.087,28.94V20.442a2.845,2.845,0,0,0-2.845-2.844Zm0,0" transform="translate(-159.677 -13.686)" fill="#ee8c16"/>
        <path id="Path_24613" data-name="Path 24613" d="M134.186,65.541H126.5a1.667,1.667,0,1,1,0-3.334h7.687a1.667,1.667,0,0,1,0,3.334Zm0,0" transform="translate(-105.534 -48.381)" fill="#fff"/>
        <path id="Path_24614" data-name="Path 24614" d="M63.22,189.426a4.579,4.579,0,0,1-6.469.247l-7.667-7.1a4.578,4.578,0,0,1,6.223-6.716l7.667,7.1A4.579,4.579,0,0,1,63.22,189.426Zm0,0" transform="translate(-45.481 -135.818)" fill="#f9cfa9"/>
        <path id="Path_24615" data-name="Path 24615" d="M82.174,200.262l-3.647-3.379A5.374,5.374,0,0,1,72.3,203.6l3.647,3.379a4.578,4.578,0,1,0,6.223-6.716Zm0,0" transform="translate(-64.682 -153.123)" fill="#fbbc8d"/>
        <path id="Path_24616" data-name="Path 24616" d="M63.22,245.6a4.578,4.578,0,0,1-6.469.247l-7.667-7.1a4.577,4.577,0,1,1,6.223-6.715l7.667,7.1A4.578,4.578,0,0,1,63.22,245.6Zm0,0" transform="translate(-45.481 -179.507)" fill="#f9cfa9"/>
        <path id="Path_24617" data-name="Path 24617" d="M63.22,301.774a4.578,4.578,0,0,1-6.469.247l-7.667-7.1a4.578,4.578,0,0,1,6.223-6.716l7.667,7.1A4.579,4.579,0,0,1,63.22,301.774Zm0,0" transform="translate(-45.481 -223.194)" fill="#f9cfa9"/>
        <path id="Path_24618" data-name="Path 24618" d="M242.117,391.9a15.789,15.789,0,0,1-.482-2.661,36.529,36.529,0,0,1-40.42,16.372,34.827,34.827,0,0,0,5.465,2.863l.112.047a14.634,14.634,0,0,1,7.809,7.88,54.2,54.2,0,0,0,30.862-12.212Zm0,0" transform="translate(-164.939 -302.721)" fill="#fbbc8d"/>
        <path id="Path_24619" data-name="Path 24619" d="M82.174,256.438l-3.647-3.379a5.374,5.374,0,0,1-6.222,6.716l3.647,3.378a4.577,4.577,0,1,0,6.223-6.715Zm0,0" transform="translate(-64.682 -196.813)" fill="#fbbc8d"/>
        <path id="Path_24620" data-name="Path 24620" d="M82.174,312.61l-3.647-3.379a5.374,5.374,0,0,1-6.222,6.716l3.647,3.379a4.578,4.578,0,1,0,6.223-6.716Zm0,0" transform="translate(-64.682 -240.499)" fill="#fbbc8d"/>
      </g>
    </g>
    <g id="Group_598" data-name="Group 598" transform="translate(102.632 6.605)">
      <path id="Path_435" data-name="Path 435" d="M321.6,101.7l-14.774,34.666-10.8-7.387-6.258,9.093-1.129-15.339-13.069-7.964Z" transform="translate(-275.569 -101.697)" fill="#d8d9d9"/>
      <path id="Path_436" data-name="Path 436" d="M296.723,129.376l13.192,9.028-10.8-7.387-6.258,9.093-1.129-15.339,20.824-12.4Z" transform="translate(-278.661 -103.738)" fill="#838484"/>
      <path id="Path_437" data-name="Path 437" d="M292.006,128.53l20.548-16.162-20.824,12.4Z" transform="translate(-278.661 -103.738)" fill="#585e60"/>
    </g>
    <path id="Path_438" data-name="Path 438" d="M180.666,194.854a1.049,1.049,0,0,0,.1-2.092,24.911,24.911,0,0,1-16.418-8.52,1.049,1.049,0,0,0-1.582,1.377,26.992,26.992,0,0,0,17.8,9.23C180.6,194.852,180.632,194.854,180.666,194.854Z" transform="translate(-151.31 -110.813)" fill="#90c73e"/>
    <g id="Group_603" data-name="Group 603" transform="translate(0 6.995)" opacity="0.2">
      <path id="Path_452" data-name="Path 452" d="M306.13,217.985a3.524,3.524,0,1,0,3.524-3.524A3.524,3.524,0,0,0,306.13,217.985Zm2.1,0a1.426,1.426,0,1,1,1.426,1.427A1.425,1.425,0,0,1,308.228,217.985Z" transform="translate(-178.783 -123.658)" fill="#90c73e"/>
      <path id="Path_453" data-name="Path 453" d="M148.661,154.144a2.7,2.7,0,1,0,2.7-2.7A2.7,2.7,0,0,0,148.661,154.144Zm1.605,0a1.092,1.092,0,1,1,1.092,1.092A1.092,1.092,0,0,1,150.266,154.144Z" transform="translate(-148.661 -111.604)" fill="#90c73e"/>
      <path id="Path_454" data-name="Path 454" d="M314.872,188.229a3,3,0,1,1-3,3A3,3,0,0,1,314.872,188.229Z" transform="translate(-179.882 -118.64)" fill="#90c73e"/>
      <path id="Path_455" data-name="Path 455" d="M177.6,201.159a2.181,2.181,0,1,1-2.181,2.181A2.181,2.181,0,0,1,177.6,201.159Z" transform="translate(-153.779 -121.113)" fill="#fdd835"/>
      <path id="Path_456" data-name="Path 456" d="M276.318,102.179a3.188,3.188,0,1,1-3.188,3.188A3.188,3.188,0,0,1,276.318,102.179Z" transform="translate(-172.471 -102.179)" fill="#ffb300"/>
      <path id="Path_457" data-name="Path 457" d="M201.644,119.647a2.726,2.726,0,1,1-2.727,2.726A2.726,2.726,0,0,1,201.644,119.647Z" transform="translate(-158.275 -105.52)" fill="#fdd835"/>
      <circle id="Ellipse_28" data-name="Ellipse 28" cx="1.689" cy="1.689" r="1.689" transform="translate(145.621 34.292)" fill="#90c73e"/>
      <path id="Path_458" data-name="Path 458" d="M247.806,106.123l-1.061-1.061a.946.946,0,1,1,1.338-1.338l1.061,1.061,1.061-1.061a.946.946,0,0,1,1.338,1.338l-1.061,1.061,1.061,1.061a.946.946,0,0,1-1.338,1.338l-1.061-1.061-1.061,1.061a.946.946,0,1,1-1.338-1.338Z" transform="translate(-167.371 -102.422)" fill="#ffb300"/>
      <path id="Path_459" data-name="Path 459" d="M175.205,220.041l-.9-.9a.8.8,0,1,1,1.132-1.132l.9.9.9-.9a.8.8,0,1,1,1.133,1.132l-.9.9.9.9a.8.8,0,1,1-1.133,1.132l-.9-.9-.9.9a.8.8,0,0,1-1.132-1.132Z" transform="translate(-153.522 -124.292)" fill="#90c73e"/>
    </g>
    <g id="Group_604" data-name="Group 604" transform="translate(60.409 45.026)" opacity="0.4">
      <path id="Path_460" data-name="Path 460" d="M292.555,151.48c.116-.676.264-1.349.438-2l-1.012-.272c-.184.685-.338,1.39-.459,2.1Z" transform="translate(-236.398 -149.205)" fill="#90c73e"/>
      <path id="Path_461" data-name="Path 461" d="M293.094,175.488a7.618,7.618,0,0,0,3.7-1.232l.579.873a8.669,8.669,0,0,1-4.212,1.406Zm-7.742-2.519.78-.7a10.542,10.542,0,0,0,3.137,2.471l-.463.941A11.583,11.583,0,0,1,285.352,172.969Zm14-1.652a7.6,7.6,0,0,0,.795-3.346c0-.091,0-.184-.006-.278l-.01-.191,1.046-.077.012.227c0,.106.007.213.007.319a8.651,8.651,0,0,1-.9,3.811Zm-43.887.056.077-1.046c1.406.1,2.812.159,4.179.166l-.006,1.049C258.327,171.536,256.9,171.478,255.467,171.373Zm8.431-1.016.656-.049c1.258-.105,2.4-.247,3.48-.434l.178,1.034c-1.113.192-2.282.338-3.571.445l-.67.052Zm-16.845-.122.2-1.029c1.393.268,2.784.5,4.133.682l-.141,1.04C249.873,170.741,248.464,170.508,247.052,170.235Zm24.989-1.36a19.353,19.353,0,0,0,3.258-1.444c.156-.087.31-.178.463-.27l.542.9c-.163.1-.327.194-.491.286a20.309,20.309,0,0,1-3.435,1.523Zm9-3.332.987-.356a23.586,23.586,0,0,0,1.73,3.739l-.909.522A24.59,24.59,0,0,1,281.038,165.543Zm-42.23,2.705.289-1.008c1.38.395,2.746.756,4.057,1.074l-.247,1.02C241.581,169.012,240.2,168.647,238.808,168.248Zm-8.056-2.6.35-.988q1.979.7,3.979,1.353l-.324,1Q232.744,166.358,230.752,165.648Zm48.436-.868a30.512,30.512,0,0,1,3.237-2.126c.124-.067.248-.134.374-.2l.48.932-.351.186a29.027,29.027,0,0,0-3.122,2.054Zm16-2.56.353-.989a8.959,8.959,0,0,1,3.86,2.071l-.734.75A8.167,8.167,0,0,0,295.184,162.22Zm-8.3-1.239a17.781,17.781,0,0,1,4.315-.423l-.026,1.049-.425-.006a16.667,16.667,0,0,0-3.635.4Zm-7.338-3.88,1.049,0a24.35,24.35,0,0,0,.372,4.107l-1.032.184A25.29,25.29,0,0,1,279.542,157.1Z" transform="translate(-224.773 -150.715)" fill="#90c73e"/>
      <path id="Path_462" data-name="Path 462" d="M225.323,165.431l.373-.98q-.979-.372-1.955-.755l-.381.978Q224.338,165.056,225.323,165.431Z" transform="translate(-223.359 -151.977)" fill="#90c73e"/>
    </g>
  </g>
</svg>
