<svg id="contactus" xmlns="http://www.w3.org/2000/svg" width="30" height="30" viewBox="0 0 30 30">
  <g id="Ellipse_6186" data-name="Ellipse 6186" fill="#fff" stroke="#f3f3f3" stroke-width="1">
    <circle cx="15" cy="15" r="15" stroke="none"/>
    <circle cx="15" cy="15" r="14.5" fill="none"/>
  </g>
  <g id="noun_contact_us_3730612" data-name="noun_contact us_3730612" transform="translate(1.942 2.439)">
    <path id="Path_35221" data-name="Path 35221" d="M15.836,22.883a1.446,1.446,0,0,0,.2.014c.856,0,1.879-.722,3.046-2.149A1.238,1.238,0,0,0,19,19.084l-1.612-1.611a1.244,1.244,0,0,0-1.757,0l-.693.693L10.41,13.636l.693-.693a1.244,1.244,0,0,0,0-1.757L9.491,9.575a1.238,1.238,0,0,0-1.664-.086c-1.543,1.261-2.261,2.354-2.135,3.25C6.137,15.9,12.678,22.438,15.836,22.883ZM8.2,9.947a.65.65,0,0,1,.873.046L10.686,11.6a.654.654,0,0,1,0,.922l-.9.9a.3.3,0,0,0,0,.417l4.946,4.946a.3.3,0,0,0,.417,0l.9-.9a.653.653,0,0,1,.922,0L18.583,19.5a.649.649,0,0,1,.046.873c-1.106,1.353-2.045,2.019-2.71,1.924-2.923-.412-9.23-6.719-9.642-9.642C6.183,11.989,6.848,11.052,8.2,9.947Z" transform="translate(0 -2.459)" fill="#3b3b3b" stroke="#3b3b3b" stroke-width="0.5"/>
    <path id="Path_35222" data-name="Path 35222" d="M30.354,5.679a.3.3,0,0,0,0,.59,6.484,6.484,0,0,1,6.476,6.476.3.3,0,1,0,.59,0A7.074,7.074,0,0,0,30.354,5.679Z" transform="translate(-16.983)" fill="#28c1ed" stroke="#28c1ed" stroke-width="0.5"/>
    <path id="Path_35223" data-name="Path 35223" d="M34.573,17.926a.3.3,0,1,0,.59,0,4.815,4.815,0,0,0-4.81-4.81.3.3,0,1,0,0,.59A4.224,4.224,0,0,1,34.573,17.926Z" transform="translate(-16.983 -5.181)" fill="#28c1ed" stroke="#28c1ed" stroke-width="0.5"/>
    <path id="Path_35224" data-name="Path 35224" d="M30.059,20.851a.3.3,0,0,0,.3.3,1.964,1.964,0,0,1,1.962,1.962.3.3,0,1,0,.59,0,2.555,2.555,0,0,0-2.552-2.552A.3.3,0,0,0,30.059,20.851Z" transform="translate(-16.983 -10.363)" fill="#28c1ed" stroke="#28c1ed" stroke-width="0.5"/>
  </g>
</svg>
