<svg id="svgexport-16_1_" data-name="svgexport-16 (1)" xmlns="http://www.w3.org/2000/svg" width="27.418" height="20.564" viewBox="0 0 27.418 20.564">
  <path id="Path_36211" data-name="Path 36211" d="M64,64H84.564V84.564H64Z" transform="translate(-60.573 -64)" fill="#eceff1"/>
  <path id="Path_36212" data-name="Path 36212" d="M256,156.582l10.282,8.119V148.672Z" transform="translate(-242.291 -144.138)" fill="#cfd8dc"/>
  <path id="Path_36213" data-name="Path 36213" d="M24.848,64h-.857L13.709,72.119,3.427,64H2.57A2.571,2.571,0,0,0,0,66.57V81.993a2.571,2.571,0,0,0,2.57,2.57h.857V68.534l10.282,7.908,10.282-7.91V84.564h.857a2.571,2.571,0,0,0,2.57-2.57V66.57A2.571,2.571,0,0,0,24.848,64Z" transform="translate(0 -64)" fill="#f44336"/>
</svg>
