<svg xmlns="http://www.w3.org/2000/svg" width="20" height="20" viewBox="0 0 20 20">
  <g id="home" transform="translate(-49 -793)">
    <g id="Group_18698" data-name="Group 18698" transform="translate(37 794.986)">
      <g id="noun_Home_3896685" transform="translate(10 -3.986)">
        <path id="Path_22316" data-name="Path 22316" d="M20.673,7.293l-7-4.773a2.951,2.951,0,0,0-3.346,0l-7,4.773A3.053,3.053,0,0,0,2,9.821v9.133A3.026,3.026,0,0,0,5,22H19a3.026,3.026,0,0,0,3-3.046V9.821a3.053,3.053,0,0,0-1.327-2.528ZM10,20V15h4v5Zm10-1.046A1.025,1.025,0,0,1,19,20H16V14a1,1,0,0,0-1-1H9a1,1,0,0,0-1,1v6H5a1.025,1.025,0,0,1-1-1.046V9.821a1.056,1.056,0,0,1,.454-.876l7-4.773a.962.962,0,0,1,1.092,0l7,4.773A1.056,1.056,0,0,1,20,9.821Z" fill="#28c1ed"/>
      </g>
    </g>
  </g>
</svg>
