<svg id="noun_logout" xmlns="http://www.w3.org/2000/svg" width="12.45" height="13.072" viewBox="0 0 12.45 13.072">
  <g id="Layer_15" data-name="Layer 15" transform="translate(0 0)">
    <path id="Path_30155" data-name="Path 30155" d="M8.558,13.3a.593.593,0,0,1,.593.593v1.778h2.963v-8.3H9.15V9.153a.593.593,0,0,1-1.185,0V7.375A1.185,1.185,0,0,1,9.15,6.19h2.963a1.181,1.181,0,0,1,1.511-1.132l2.963.877a1.185,1.185,0,0,1,.859,1.15v8.89a1.185,1.185,0,0,1-.853,1.185l-2.963.877a1.189,1.189,0,0,1-1.517-1.179H9.15a1.185,1.185,0,0,1-1.185-1.185V13.894A.593.593,0,0,1,8.558,13.3Zm7.7,2.661V7.073L13.3,6.19V16.858Zm-2.8,1.488-.16-.593h0ZM5.043,11.322a.593.593,0,0,1,.13-.2L6.359,9.941a.593.593,0,0,1,.836.836l-.172.172h2.72a.593.593,0,1,1,0,1.185H7.023l.172.172a.593.593,0,1,1-.836.836L5.173,11.956a.593.593,0,0,1-.13-.646Z" transform="translate(-4.998 -5.011)" fill="#fff"/>
  </g>
</svg>
