<svg xmlns="http://www.w3.org/2000/svg" width="19.191" height="19.564" viewBox="0 0 19.191 19.564">
  <g id="noun_menu" transform="translate(-42.9 -39.71)">
    <path id="Path_29480" data-name="Path 29480" d="M42.9,46.578a1.66,1.66,0,0,0,1.658,1.658h5.21a1.66,1.66,0,0,0,1.658-1.658v-5.21a1.66,1.66,0,0,0-1.658-1.658h-5.21A1.66,1.66,0,0,0,42.9,41.368Zm1.421-5.21a.237.237,0,0,1,.237-.237h5.21a.237.237,0,0,1,.237.237v5.21a.237.237,0,0,1-.237.237h-5.21a.237.237,0,0,1-.237-.237Z" transform="translate(0 0)" fill="#999"/>
    <path id="Path_29481" data-name="Path 29481" d="M162.367,39.75h-5.21a1.66,1.66,0,0,0-1.658,1.658v5.21a1.66,1.66,0,0,0,1.658,1.658h5.21a1.66,1.66,0,0,0,1.658-1.658v-5.21a1.66,1.66,0,0,0-1.658-1.658Zm.237,6.864a.237.237,0,0,1-.237.237h-5.21a.237.237,0,0,1-.237-.237V41.4a.237.237,0,0,1,.237-.237h5.21a.237.237,0,0,1,.237.237Z" transform="translate(-101.934 -0.036)" fill="#999"/>
    <path id="Path_29482" data-name="Path 29482" d="M42.9,163.118a1.66,1.66,0,0,0,1.658,1.658h5.21a1.66,1.66,0,0,0,1.658-1.658v-5.21a1.66,1.66,0,0,0-1.658-1.658h-5.21a1.66,1.66,0,0,0-1.658,1.658Zm1.421-5.21a.237.237,0,0,1,.237-.237h5.21a.237.237,0,0,1,.237.237v5.21a.237.237,0,0,1-.237.237h-5.21a.237.237,0,0,1-.237-.237Z" transform="translate(0 -105.501)" fill="#999"/>
    <path id="Path_29483" data-name="Path 29483" d="M162.367,164.775a1.66,1.66,0,0,0,1.658-1.658v-5.21a1.66,1.66,0,0,0-1.658-1.658h-5.21a1.66,1.66,0,0,0-1.658,1.658v5.21a1.66,1.66,0,0,0,1.658,1.658Zm-5.443-1.658v-5.21a.237.237,0,0,1,.237-.237h5.21a.237.237,0,0,1,.237.237v5.21a.237.237,0,0,1-.237.237h-5.214a.237.237,0,0,1-.233-.237Z" transform="translate(-101.934 -105.501)" fill="#999"/>
  </g>
</svg>
