<svg xmlns="http://www.w3.org/2000/svg" width="17.256" height="21.346" viewBox="0 0 17.256 21.346">
  <g id="noun_list" transform="translate(-11.6 -2.5)">
    <g id="Group_25815" data-name="Group 25815" transform="translate(11.6 2.5)">
      <path id="Path_29469" data-name="Path 29469" d="M28.07,5.623,25.756,3.309a2.667,2.667,0,0,0-1.91-.786L14.3,2.5h0a2.685,2.685,0,0,0-2.7,2.7V21.149a2.7,2.7,0,0,0,2.7,2.7H26.16a2.7,2.7,0,0,0,2.7-2.7V7.511A2.709,2.709,0,0,0,28.07,5.623Zm-.989.989a1.86,1.86,0,0,1,.247.337H24.52a.1.1,0,0,1-.09-.09V4.073a1.185,1.185,0,0,1,.337.247ZM26.16,22.43H14.3a1.3,1.3,0,0,1-1.281-1.281V5.2a1.222,1.222,0,0,1,.382-.9,1.26,1.26,0,0,1,.9-.382h0l8.718.022V6.881A1.506,1.506,0,0,0,24.52,8.387h2.943V21.172A1.311,1.311,0,0,1,26.16,22.43Z" transform="translate(-11.6 -2.5)" fill="#999"/>
      <path id="Path_29470" data-name="Path 29470" d="M51.795,55.8H46.9a.7.7,0,0,0,0,1.393h4.9a.7.7,0,0,0,0-1.393Z" transform="translate(-38.426 -43.824)" fill="#999"/>
      <path id="Path_29471" data-name="Path 29471" d="M51.795,38H46.9a.7.7,0,0,0,0,1.393h4.9a.7.7,0,1,0,0-1.393Z" transform="translate(-38.426 -30.023)" fill="#999"/>
      <path id="Path_29472" data-name="Path 29472" d="M51.795,73.5H46.9a.7.7,0,0,0,0,1.393h4.9a.7.7,0,0,0,0-1.393Z" transform="translate(-38.426 -57.547)" fill="#999"/>
      <path id="Path_29473" data-name="Path 29473" d="M28.484,34.044l-1.1,1.1-.292-.292a.7.7,0,0,0-.989.989l.809.809a.705.705,0,0,0,.989,0l1.618-1.618a.705.705,0,0,0,0-.989A.719.719,0,0,0,28.484,34.044Z" transform="translate(-22.687 -26.787)" fill="#999"/>
      <path id="Path_29474" data-name="Path 29474" d="M28.484,51.8l-1.1,1.1-.292-.292a.7.7,0,0,0-.989.989l.809.809a.705.705,0,0,0,.989,0l1.618-1.618a.705.705,0,0,0,0-.989A.761.761,0,0,0,28.484,51.8Z" transform="translate(-22.687 -40.568)" fill="#999"/>
      <path id="Path_29475" data-name="Path 29475" d="M28.484,69.5l-1.1,1.1-.292-.292a.7.7,0,0,0-.989.989l.809.809a.705.705,0,0,0,.989,0l1.618-1.618a.705.705,0,0,0,0-.989A.761.761,0,0,0,28.484,69.5Z" transform="translate(-22.687 -54.291)" fill="#999"/>
    </g>
  </g>
</svg>
