<svg id="wallet" xmlns="http://www.w3.org/2000/svg" width="30" height="30" viewBox="0 0 30 30">
  <g id="Ellipse_6186" data-name="Ellipse 6186" fill="#fff" stroke="#f3f3f3" stroke-width="1">
    <circle cx="15" cy="15" r="15" stroke="none"/>
    <circle cx="15" cy="15" r="14.5" fill="none"/>
  </g>
  <g id="noun_Policy_3846498" transform="translate(4.893 5.531)">
    <path id="Path_35225" data-name="Path 35225" d="M16.812,5.2V4.938a.532.532,0,0,0-.391-.513,4.271,4.271,0,0,1-2.385-1.7.532.532,0,0,0-.278-.231,11.651,11.651,0,0,0-3.653-.445A11.651,11.651,0,0,0,6.455,2.5a.537.537,0,0,0-.276.229,4.277,4.277,0,0,1-2.386,1.7A.532.532,0,0,0,3.4,4.94v.266c0,3.529-.012,10.1,6.582,11.672a.538.538,0,0,0,.247,0C16.824,15.3,16.816,8.733,16.812,5.2ZM10.107,15.81C4.523,14.395,4.465,8.78,4.465,5.329A5.356,5.356,0,0,0,6.973,3.454a12.247,12.247,0,0,1,3.134-.336,12.223,12.223,0,0,1,3.133.336,5.356,5.356,0,0,0,2.508,1.875C15.751,8.78,15.69,14.395,10.107,15.81Zm2.268-8.688a.532.532,0,0,1,.106.745L9.973,11.221a.532.532,0,0,1-.418.213H9.548a.532.532,0,0,1-.416-.2L7.741,9.488a.532.532,0,1,1,.832-.663l.961,1.206,2.095-2.8A.532.532,0,0,1,12.374,7.123Z" fill="#3b3b3b"/>
    <path id="Path_35226" data-name="Path 35226" d="M12.374,7.123a.532.532,0,0,1,.106.745L9.973,11.221a.532.532,0,0,1-.418.213H9.548a.532.532,0,0,1-.416-.2L7.741,9.488a.532.532,0,1,1,.832-.663l.961,1.206,2.095-2.8A.532.532,0,0,1,12.374,7.123Z" fill="#28c1ed"/>
  </g>
</svg>
