<svg id="saudi" xmlns="http://www.w3.org/2000/svg" width="32.681" height="21.411" viewBox="0 0 32.681 21.411">
  <path id="Path_11584" data-name="Path 11584" d="M30.233,109.687H2.448A2.447,2.447,0,0,1,0,107.24V90.724a2.448,2.448,0,0,1,2.448-2.448H30.233a2.448,2.448,0,0,1,2.448,2.448V107.24A2.447,2.447,0,0,1,30.233,109.687Z" transform="translate(0 -88.276)" fill="#73af00"/>
  <g id="Group_11340" data-name="Group 11340" transform="translate(6.461 4.508)">
    <path id="Path_11585" data-name="Path 11585" d="M102.437,168.38c.056.356.271.468.458.453a.46.46,0,0,0,.414-.432V167.18a.111.111,0,1,1,.222,0v1.227a.444.444,0,0,0,.609.412l.111-.044c.01,1.025-.052,1.927-.053,1.943a.222.222,0,0,0,.206.237h.016a.222.222,0,0,0,.221-.206c.005-.072.074-1.059.053-2.152l.067-.027a.223.223,0,0,1,.182.008.634.634,0,0,0,.732-.119l.04-.04a.663.663,0,0,0,.161-.682l-.189-.567a.222.222,0,0,0,.165-.411l-.444-.222a.222.222,0,0,0-.31.269l.357,1.072a.221.221,0,0,1-.054.227l-.04.04a.191.191,0,0,1-.22.036.664.664,0,0,0-.462-.046,7.661,7.661,0,0,0-.272-1.914.222.222,0,0,0-.421.141,7.637,7.637,0,0,1,.255,1.939l-.266.106V167.18a.555.555,0,1,0-1.111,0v1.075l-.227-1.119a.222.222,0,1,0-.435.088Z" transform="translate(-102.136 -165.611)" fill="#f5f5f5"/>
    <path id="Path_11586" data-name="Path 11586" d="M109.382,163.26a.222.222,0,0,0,.222-.222v-.222a.222.222,0,1,0-.444,0v.222A.222.222,0,0,0,109.382,163.26Z" transform="translate(-108.653 -162.358)" fill="#f5f5f5"/>
    <path id="Path_11587" data-name="Path 11587" d="M144.179,163.038h.222a.222.222,0,1,0,0-.444h-.222a.222.222,0,1,0,0,.444Z" transform="translate(-141.229 -162.358)" fill="#f5f5f5"/>
    <path id="Path_11588" data-name="Path 11588" d="M106.9,214.821l-1.111.666a.222.222,0,1,0,.229.381l1.111-.666a.222.222,0,1,0-.229-.381Z" transform="translate(-105.395 -211.222)" fill="#f5f5f5"/>
    <path id="Path_11589" data-name="Path 11589" d="M119.592,169.606l.005,0a.507.507,0,0,0,.1.209.436.436,0,0,0,.378.147.613.613,0,0,0,.462-.243.4.4,0,0,0,.047.028.421.421,0,0,0,.391-.013.843.843,0,0,0,.4-.782.227.227,0,0,0-.231-.21.223.223,0,0,0-.213.231s.005.266-.156.364a.541.541,0,0,1-.069-.187.222.222,0,0,0-.441.037c0,.032-.007.317-.227.341a.542.542,0,0,1,0-.291A.222.222,0,0,0,119.7,169l-.124.084c-.059-1.288-.194-2.789-.2-2.808a.222.222,0,1,0-.442.04c0,.021.159,1.757.207,3.083l-.034.033a.573.573,0,0,0-.486-.382.811.811,0,0,0-.782.495.525.525,0,0,0,.17.662.74.74,0,0,0,.662.03,1.858,1.858,0,0,1-.361.685.932.932,0,0,1-.71.362.584.584,0,0,1-.431-.184,1.268,1.268,0,0,1-.235-.795.222.222,0,0,0-.21-.233.218.218,0,0,0-.234.21,1.7,1.7,0,0,0,.349,1.116,1.019,1.019,0,0,0,.744.33h.045a1.353,1.353,0,0,0,1.019-.517,2.3,2.3,0,0,0,.509-1.138,2.517,2.517,0,0,1-1.066,1.994,1.109,1.109,0,0,1-1.112.081.953.953,0,0,1-.489-.939.222.222,0,0,0-.441-.055,1.4,1.4,0,0,0,.733,1.393,1.51,1.51,0,0,0,.672.16,1.644,1.644,0,0,0,.871-.263,2.953,2.953,0,0,0,1.276-2.373C119.6,169.927,119.6,169.771,119.592,169.606Zm-1.339.229c-.04-.026-.009-.11,0-.127a.378.378,0,0,1,.31-.218h.018c.028,0,.1.01.136.177,0,.018.006.036.009.055C118.476,169.868,118.31,169.873,118.253,169.835Z" transform="translate(-115.095 -165.614)" fill="#f5f5f5"/>
    <path id="Path_11590" data-name="Path 11590" d="M102.065,243.552a.223.223,0,0,0-.3.079.455.455,0,0,1-.038.053l-.007-.018a1.494,1.494,0,0,1,.007-.754.222.222,0,0,0-.429-.115,1.912,1.912,0,0,0,.007,1.024c.1.272.258.34.372.349h.03a.584.584,0,0,0,.443-.317A.222.222,0,0,0,102.065,243.552Z" transform="translate(-101.225 -237.288)" fill="#f5f5f5"/>
    <path id="Path_11591" data-name="Path 11591" d="M175.351,164.593a.22.22,0,0,0,.137-.048l1.12-.879a.214.214,0,0,0,.037-.043.556.556,0,1,0-.638-.049l-.793.622a.222.222,0,0,0,.137.4Zm1.009-1.555a.111.111,0,1,1-.111.111A.111.111,0,0,1,176.36,163.038Z" transform="translate(-170.411 -162.358)" fill="#f5f5f5"/>
    <path id="Path_11592" data-name="Path 11592" d="M185.477,190.443a.222.222,0,0,0-.281.14.679.679,0,0,0,.087.655.448.448,0,0,0,.332.127.976.976,0,0,0,.307-.057.222.222,0,1,0-.141-.421.771.771,0,0,1-.181.039.425.425,0,0,1,.018-.2A.222.222,0,0,0,185.477,190.443Z" transform="translate(-179.792 -188.418)" fill="#f5f5f5"/>
    <path id="Path_11593" data-name="Path 11593" d="M227.775,163.327a.222.222,0,0,0,.276-.151l.13-.444a.222.222,0,1,0-.426-.125l-.13.444A.222.222,0,0,0,227.775,163.327Z" transform="translate(-219.548 -162.221)" fill="#f5f5f5"/>
    <path id="Path_11594" data-name="Path 11594" d="M206.048,159.978a.222.222,0,1,0,.224-.383c-.045-.026-.039-.1-.037-.114a.174.174,0,0,1,.1-.148.222.222,0,0,0-.132-.424.61.61,0,0,0-.411.522A.548.548,0,0,0,206.048,159.978Z" transform="translate(-199.115 -158.897)" fill="#f5f5f5"/>
    <path id="Path_11595" data-name="Path 11595" d="M178.976,232.189a.222.222,0,0,0-.042.44.417.417,0,0,1,.042.226.222.222,0,0,0,.444,0C179.42,232.2,178.994,232.189,178.976,232.189Z" transform="translate(-173.805 -227.511)" fill="#f5f5f5"/>
    <path id="Path_11596" data-name="Path 11596" d="M234.868,208.465a.511.511,0,0,0,.084.007.759.759,0,0,0,.525-.263.222.222,0,0,0-.314-.314c-.133.133-.2.136-.223.132-.042-.006-.081-.061-.089-.077a.222.222,0,0,0-.4.2A.6.6,0,0,0,234.868,208.465Z" transform="translate(-225.929 -204.706)" fill="#f5f5f5"/>
    <path id="Path_11597" data-name="Path 11597" d="M294.022,190.975l0-.01a.222.222,0,0,0-.421.142.5.5,0,0,0,.361.346.372.372,0,0,0,.049,0,.544.544,0,0,0,.43-.3.222.222,0,1,0-.37-.246A.66.66,0,0,1,294.022,190.975Z" transform="translate(-281.307 -188.777)" fill="#f5f5f5"/>
    <path id="Path_11598" data-name="Path 11598" d="M205.627,171.841c0-.947-.042-1.836-.1-2.614a11.249,11.249,0,0,1,.78,1.582.222.222,0,0,0,.208.144.224.224,0,0,0,.078-.014.222.222,0,0,0,.13-.286,14.71,14.71,0,0,0-1.284-2.434c-.121-1.2-.257-1.956-.26-1.969a.222.222,0,0,0-.437.079c0,.01.072.4.155,1.059-.171-.253-.329-.482-.462-.67l.011,0a.222.222,0,1,0,.141-.421l-.666-.222a.22.22,0,0,0-.283.149.484.484,0,0,0-.464-.111.378.378,0,0,0-.212.4,2.007,2.007,0,0,0,.153.629c.131.37.213.643.074.773a.243.243,0,0,1-.228.08c-.137-.035-.273-.217-.363-.488a.21.21,0,0,0-.018-.031,3.777,3.777,0,0,0-.068-1.229.222.222,0,1,0-.436.087,2.115,2.115,0,0,1-.116,1.583.4.4,0,0,1-.332.15.128.128,0,0,1-.106-.049,2.141,2.141,0,0,1-.118-1.252.222.222,0,0,0-.22-.253c-.382,0-.527.435-.655.818-.056.169-.161.482-.233.515-.134,0-.221-.395-.222-.667a.222.222,0,0,0-.222-.222h0a.222.222,0,0,0-.222.222c0,.512.175,1.111.666,1.111.366,0,.515-.4.639-.77a1.392,1.392,0,0,0,.252.789.57.57,0,0,0,.442.2.845.845,0,0,0,.676-.313,1.022,1.022,0,0,0,.082-.123.829.829,0,0,0,.465.349.641.641,0,0,0,.157.02.7.7,0,0,0,.484-.207.65.65,0,0,0,.074-.09.6.6,0,0,0,.164.025.9.9,0,0,0,.461-.141.222.222,0,0,0-.239-.375.471.471,0,0,1-.251.066,2.291,2.291,0,0,0-.168-.73,3.1,3.1,0,0,1-.115-.371c.018.015.036.031.052.047a.222.222,0,0,0,.314,0,.214.214,0,0,0,.032-.049c.23.317.7.984,1.191,1.752.093.944.175,2.149.175,3.47a.222.222,0,0,0,.444,0Z" transform="translate(-193.349 -165.608)" fill="#f5f5f5"/>
    <path id="Path_11599" data-name="Path 11599" d="M293.808,166.964a.222.222,0,0,0,.444,0,2.265,2.265,0,0,0-.246-.766.222.222,0,1,0-.4.2A1.974,1.974,0,0,1,293.808,166.964Z" transform="translate(-281.308 -165.617)" fill="#f5f5f5"/>
    <path id="Path_11600" data-name="Path 11600" d="M263.48,250.057a.222.222,0,0,0-.3.1.633.633,0,0,1-.092.132,1.243,1.243,0,0,1,.059-.411.222.222,0,0,0-.369-.222l-.444.444a.222.222,0,0,0,.314.314l.011-.011a.459.459,0,0,0,.119.233.406.406,0,0,0,.289.127.4.4,0,0,0,.061,0,.723.723,0,0,0,.45-.4A.222.222,0,0,0,263.48,250.057Z" transform="translate(-251.99 -243.8)" fill="#f5f5f5"/>
    <path id="Path_11601" data-name="Path 11601" d="M172.175,205.918H170.61q.021-.083.043-.158c.624-.13,1-.331,1.1-.6a.5.5,0,0,0-.084-.5.551.551,0,0,0-.562-.239c-.316.064-.6.4-.8.948a2.553,2.553,0,0,0-1.282.555,3.442,3.442,0,0,0-.461-1.477.222.222,0,1,0-.37.246,3.207,3.207,0,0,1,.407,1.654,1.758,1.758,0,0,1-1.333,1.777c-.249,0-.359-.3-.407-.547a2.551,2.551,0,0,0,1.066-1.176,1.766,1.766,0,0,0-.148-1.2l-.016-.039.014.013a.222.222,0,1,0,.314-.314c-.13-.13-.382-.334-.611-.238a.378.378,0,0,0-.212.4.944.944,0,0,0,.1.357,1.343,1.343,0,0,1,.125.922,1.879,1.879,0,0,1-.727.8.218.218,0,0,0-.168-.082h0a.222.222,0,0,0-.222.222c0,.04,0,.083,0,.127a11.685,11.685,0,0,1-1.429.782.222.222,0,0,0,.092.424.22.22,0,0,0,.092-.02,12.8,12.8,0,0,0,1.327-.71.864.864,0,0,0,.8.73,1.887,1.887,0,0,0,1.486-1.086,1.292,1.292,0,0,0,.148.212,2.5,2.5,0,0,0,1.7.652.222.222,0,0,0,.016-.444.475.475,0,0,1-.277-.135.381.381,0,0,1-.073-.292c.023-.274.906-.478,1.684-.49a.222.222,0,0,0,.206-.148l.222-.625a.222.222,0,0,0-.209-.3Zm-.975-1.061.017,0c.021,0,.055.01.1.071.008.011.036.05.029.067-.025.063-.179.167-.5.261C170.987,204.98,171.125,204.873,171.2,204.858Zm-1.341,2.92a1.36,1.36,0,0,1-.615-.374.944.944,0,0,1-.2-.782.654.654,0,0,1,.046-.094c.313-.029,1.148.095,1.206.334a.746.746,0,0,0-.47.58A.936.936,0,0,0,169.859,207.777Z" transform="translate(-160.771 -201.448)" fill="#f5f5f5"/>
    <path id="Path_11602" data-name="Path 11602" d="M291.873,166.888l-.222-.666a.222.222,0,0,0-.432.092c.153,1.533.443,4.522.443,4.864,0,.308-.547.914-1.432,1.356a.222.222,0,0,0,.2.4c.808-.4,1.678-1.125,1.678-1.753,0-.328-.227-2.689-.357-4.016A.222.222,0,0,0,291.873,166.888Z" transform="translate(-278.051 -165.612)" fill="#f5f5f5"/>
    <path id="Path_11603" data-name="Path 11603" d="M336.077,194.309a.222.222,0,0,0,.372-.212,1.122,1.122,0,0,1-.032-.431.225.225,0,0,0,.231-.19.222.222,0,0,0-.188-.251.4.4,0,0,0-.366.123.508.508,0,0,0-.112.238l-.257-.257a.222.222,0,1,0-.314.314Z" transform="translate(-320.402 -191.029)" fill="#f5f5f5"/>
    <path id="Path_11604" data-name="Path 11604" d="M341.054,213.3l-.833.6a.222.222,0,0,0,.259.361l.833-.6a.222.222,0,1,0-.259-.361Z" transform="translate(-324.88 -209.793)" fill="#f5f5f5"/>
    <path id="Path_11605" data-name="Path 11605" d="M352.789,225.748a.222.222,0,0,0,.02.295.616.616,0,0,1,.045.32.222.222,0,0,0,.214.23h.008a.222.222,0,0,0,.222-.214c.016-.453-.132-.619-.2-.669A.222.222,0,0,0,352.789,225.748Z" transform="translate(-336.688 -221.4)" fill="#f5f5f5"/>
    <path id="Path_11606" data-name="Path 11606" d="M325.407,171.6a.222.222,0,0,0,.222-.222c0-.328-.017-.694-.044-1.074a8.1,8.1,0,0,1,.521.967.222.222,0,0,0,.2.135.219.219,0,0,0,.087-.018.222.222,0,0,0,.117-.292,12.225,12.225,0,0,0-1.016-1.752c-.087-.815-.2-1.614-.289-2.187a.214.214,0,0,0,.139-.035.219.219,0,0,0,.1-.2.216.216,0,0,0,.025.064.809.809,0,0,1,.081.544.222.222,0,0,0,.172.262.234.234,0,0,0,.045,0,.222.222,0,0,0,.217-.177,1.259,1.259,0,0,0-.141-.872.223.223,0,0,0-.307-.068.22.22,0,0,0-.1.2.216.216,0,0,0-.025-.064l-.375-.583a.222.222,0,0,0-.406.159c0,.017.173.992.323,2.167-.17-.24-.341-.476-.506-.7-.027-.336-.054-.647-.077-.9a.229.229,0,0,0,.036-.014.222.222,0,0,0,.1-.3l-.222-.444a.222.222,0,0,0-.42.121c.027.265.054.559.081.867-.14-.185-.271-.355-.382-.5a.222.222,0,0,0-.045-.367l-.444-.222a.222.222,0,0,0-.273.338c.012.015.559.7,1.213,1.585a17.851,17.851,0,0,1,.082,3.314c-.02.059-.054.128-.086.13-.134.019-.455-.281-.616-.6a.309.309,0,0,0-.3-.2c-.239.015-.332.277-.5.754a3.126,3.126,0,0,1-.441.94,2.522,2.522,0,0,1-.276-.874.221.221,0,0,0,.429-.075c0-.331-.232-2.854-.361-4.236a.222.222,0,0,0,.128-.276l-.222-.666a.222.222,0,0,0-.432.091c.151,1.585.434,4.645.443,5.067l0-.011a.222.222,0,1,0-.44.063c.065.454.231,1.235.612,1.362a.371.371,0,0,0,.118.019.436.436,0,0,0,.313-.145,3.2,3.2,0,0,0,.55-1.11c.033-.092.071-.2.108-.294.2.3.559.668.919.639a.545.545,0,0,0,.476-.433,12.512,12.512,0,0,0-.008-2.773c.187.262.374.531.553.8.069.665.119,1.332.119,1.879A.222.222,0,0,0,325.407,171.6Z" transform="translate(-307.368 -165.619)" fill="#f5f5f5"/>
    <path id="Path_11607" data-name="Path 11607" d="M383.016,170.837c-.157-1.172-.377-2.53-.515-3.363a.219.219,0,0,0,.186-.04.222.222,0,0,0,.042-.311l-.4-.528a.222.222,0,0,0-.4.173c0,.023.4,2.3.645,4.128a2.082,2.082,0,0,1-.366,1.667.983.983,0,0,1-.815.3.222.222,0,1,0-.028.443c.038,0,.075,0,.111,0a1.4,1.4,0,0,0,1.056-.448A2.48,2.48,0,0,0,383.016,170.837Z" transform="translate(-363.291 -166.022)" fill="#f5f5f5"/>
    <path id="Path_11608" data-name="Path 11608" d="M371.074,256.2a.225.225,0,0,0,.011.312.093.093,0,0,1,.027.046.1.1,0,0,1-.034.05.222.222,0,1,0,.314.314.5.5,0,0,0,.164-.379.529.529,0,0,0-.174-.362A.22.22,0,0,0,371.074,256.2Z" transform="translate(-353.792 -249.924)" fill="#f5f5f5"/>
    <path id="Path_11609" data-name="Path 11609" d="M157.728,327.064h-1.555v-.222a.222.222,0,1,0-.444,0v.222H143.957a3.1,3.1,0,0,0,2,.666h9.773v.444a.222.222,0,0,0,.222.222h1.777a.666.666,0,1,0,0-1.333Zm0,.888h-1.555v-.222h1.777l-.04-.12a.216.216,0,0,1,.04.12A.222.222,0,0,1,157.728,327.953Z" transform="translate(-141.229 -315.914)" fill="#f5f5f5"/>
  </g>
</svg>
