<svg id="terms" xmlns="http://www.w3.org/2000/svg" width="30" height="30" viewBox="0 0 30 30">
  <g id="Ellipse_6186" data-name="Ellipse 6186" fill="#fff" stroke="#f3f3f3" stroke-width="1">
    <circle cx="15" cy="15" r="15" stroke="none"/>
    <circle cx="15" cy="15" r="14.5" fill="none"/>
  </g>
  <g id="noun_Terms_And_Conditions_1446444" data-name="noun_Terms And Conditions_1446444" transform="translate(-19.296 -13.13)">
    <path id="Path_22738" data-name="Path 22738" d="M36.213,21.248H30.292a1.419,1.419,0,0,0-1.417,1.417V34.59a1.419,1.419,0,0,0,1.417,1.417H38.3a1.419,1.419,0,0,0,1.417-1.417V24.8Zm.3,1.765L37.978,24.5H36.512ZM38.692,34.59a.391.391,0,0,1-.39.39h-8.01a.391.391,0,0,1-.39-.39V22.665a.391.391,0,0,1,.39-.39h5.193v3.252h3.207Zm-7.264-1.158h5.737V32.405H31.428Zm0-2.71h5.737V29.7H31.428Zm0-2.71h5.737V26.985H31.428Z" transform="translate(0 0)" fill="#3b3b3b"/>
    <path id="Path_22738-2" data-name="Path 22738" d="M31.428,33.432h5.737V32.405H31.428Zm0-2.71h5.737V29.7H31.428Zm0-2.71h5.737V26.985H31.428Z" fill="#28c1ed"/>
  </g>
</svg>
