<svg id="wallet" xmlns="http://www.w3.org/2000/svg" width="30" height="30" viewBox="0 0 30 30">
  <g id="Ellipse_6186" data-name="Ellipse 6186" fill="#fff" stroke="#f3f3f3" stroke-width="1">
    <circle cx="15" cy="15" r="15" stroke="none"/>
    <circle cx="15" cy="15" r="14.5" fill="none"/>
  </g>
  <g id="translate" transform="translate(7.839 7.839)">
    <path id="Path_10377" data-name="Path 10377" d="M317.315,301.421c-.04-.135-.207-.2-.378-.2a.365.365,0,0,0-.373.2l-.868,2.827a.263.263,0,0,0-.009.045c0,.144.211.243.369.243.1,0,.175-.031.2-.117l.171-.6h1.029l.171.6c.022.085.1.117.2.117.157,0,.369-.1.369-.243a.2.2,0,0,0-.009-.045Zm-.769,1.942.391-1.38.391,1.38Zm0,0" transform="translate(-306.857 -292.797)" fill="#28c1ed"/>
    <path id="Path_10378" data-name="Path 10378" d="M12.779,5.843h-4.3V4.006l1.4-1a.42.42,0,0,0,0-.683L8.462,1.315A1.546,1.546,0,0,0,6.936,0H1.543A1.545,1.545,0,0,0,0,1.543V6.936A1.545,1.545,0,0,0,1.543,8.479h4.3v1.836l-1.4,1a.42.42,0,0,0,0,.683l1.414,1.01a1.546,1.546,0,0,0,1.526,1.315h5.393a1.545,1.545,0,0,0,1.543-1.543V7.386a1.545,1.545,0,0,0-1.543-1.543ZM1.543,7.64a.7.7,0,0,1-.7-.7V1.543a.7.7,0,0,1,.7-.7H6.936a.7.7,0,0,1,.7.7.419.419,0,0,0,.176.341l1.095.782-1.095.782a.42.42,0,0,0-.176.341V5.843H7.386A1.545,1.545,0,0,0,5.843,7.386V7.64Zm11.94,5.139a.7.7,0,0,1-.7.7H7.386a.7.7,0,0,1-.7-.7.419.419,0,0,0-.176-.341l-1.095-.782,1.095-.782a.42.42,0,0,0,.176-.341V7.386a.7.7,0,0,1,.7-.7h5.393a.7.7,0,0,1,.7.7Zm0,0" transform="translate(0)" fill="#3b3b3b"/>
    <path id="Path_10379" data-name="Path 10379" d="M99.834,93.64a.237.237,0,0,0,0-.473H98.782v-.575a.237.237,0,1,0-.473,0v.575H97.256a.237.237,0,0,0,0,.473h.326a2.257,2.257,0,0,0,.592,1.3,1.781,1.781,0,0,1-.918.254.237.237,0,0,0,0,.473,2.251,2.251,0,0,0,1.289-.4,2.251,2.251,0,0,0,1.289.4.237.237,0,0,0,0-.473,1.779,1.779,0,0,1-.918-.254,2.257,2.257,0,0,0,.592-1.3Zm-1.289,1.005a1.787,1.787,0,0,1-.486-1.005h.972A1.787,1.787,0,0,1,98.545,94.645Zm0,0" transform="translate(-94.305 -89.772)" fill="#28c1ed"/>
  </g>
</svg>
