<svg id="svgexport-6_9_" data-name="svgexport-6 (9)" xmlns="http://www.w3.org/2000/svg" width="27.247" height="22.138" viewBox="0 0 27.247 22.138">
  <path id="Path_36205" data-name="Path 36205" d="M27.247,50.621a11.646,11.646,0,0,1-3.219.882,5.554,5.554,0,0,0,2.457-3.087,11.163,11.163,0,0,1-3.542,1.352,5.585,5.585,0,0,0-9.662,3.82,5.752,5.752,0,0,0,.129,1.274A15.811,15.811,0,0,1,1.9,49.018a5.587,5.587,0,0,0,1.717,7.466A5.516,5.516,0,0,1,1.09,55.8v.061a5.611,5.611,0,0,0,4.475,5.488A5.575,5.575,0,0,1,4.1,61.53a4.939,4.939,0,0,1-1.058-.1,5.639,5.639,0,0,0,5.219,3.891,11.224,11.224,0,0,1-6.926,2.382A10.462,10.462,0,0,1,0,67.631a15.726,15.726,0,0,0,8.569,2.507,15.789,15.789,0,0,0,15.9-15.895c0-.247-.009-.485-.02-.722A11.143,11.143,0,0,0,27.247,50.621Z" transform="translate(0 -48)" fill="#03a9f4"/>
</svg>
