<svg xmlns="http://www.w3.org/2000/svg" width="375.003" height="160.534" viewBox="0 0 375.003 160.534">
  <g id="undraw_good" opacity="0.46">
    <path id="Path_10890" data-name="Path 10890" d="M357.333,73.887V54.9H342.411V73.887h-17.67V44.51H311.782V22.552h-10.6V0h-21.99V22.552h-10.6V44.51H256.023V18.1h-7.068V4.748h-4.319V18.1H219.5v84.273H200.263v-8.9h-11.78v8.9H169.242V73.887H134.687V54.9H119.765V73.887h-.785v36.5H103.273V89.021H84.425v21.365H68.718V44.51H56.545V22.552H11.78V44.51H0V160.534H375V73.887Z" fill="#c4c4c4" opacity="0.3"/>
    <rect id="Rectangle_2458" data-name="Rectangle 2458" width="16.511" height="9.559" transform="translate(7.186 54.549)" fill="#c4c4c4" opacity="0.4"/>
    <rect id="Rectangle_2459" data-name="Rectangle 2459" width="16.511" height="9.559" transform="translate(61.064 64.108) rotate(180)" fill="#c4c4c4" opacity="0.4"/>
    <rect id="Rectangle_2460" data-name="Rectangle 2460" width="16.511" height="9.559" transform="translate(7.186 69.322)" fill="#c4c4c4" opacity="0.4"/>
    <rect id="Rectangle_2461" data-name="Rectangle 2461" width="16.511" height="9.559" transform="translate(61.064 78.881) rotate(180)" fill="#c4c4c4" opacity="0.4"/>
    <rect id="Rectangle_2462" data-name="Rectangle 2462" width="16.511" height="9.559" transform="translate(7.186 83.226)" fill="#c4c4c4" opacity="0.4"/>
    <rect id="Rectangle_2463" data-name="Rectangle 2463" width="16.511" height="9.559" transform="translate(61.064 92.784) rotate(180)" fill="#c4c4c4" opacity="0.4"/>
    <rect id="Rectangle_2464" data-name="Rectangle 2464" width="16.511" height="9.559" transform="translate(7.186 97.998)" fill="#c4c4c4" opacity="0.4"/>
    <rect id="Rectangle_2465" data-name="Rectangle 2465" width="16.511" height="9.559" transform="translate(61.064 107.557) rotate(180)" fill="#c4c4c4" opacity="0.4"/>
    <rect id="Rectangle_2466" data-name="Rectangle 2466" width="16.511" height="8.69" transform="translate(7.186 113.64)" fill="#c4c4c4" opacity="0.4"/>
    <rect id="Rectangle_2467" data-name="Rectangle 2467" width="16.511" height="8.69" transform="translate(61.064 122.33) rotate(180)" fill="#c4c4c4" opacity="0.4"/>
    <rect id="Rectangle_2468" data-name="Rectangle 2468" width="16.511" height="9.559" transform="translate(7.186 128.413)" fill="#c4c4c4" opacity="0.4"/>
    <rect id="Rectangle_2469" data-name="Rectangle 2469" width="16.511" height="9.559" transform="translate(61.064 137.972) rotate(180)" fill="#c4c4c4" opacity="0.4"/>
    <rect id="Rectangle_2470" data-name="Rectangle 2470" width="16.511" height="9.559" transform="translate(7.186 142.317)" fill="#c4c4c4" opacity="0.4"/>
    <rect id="Rectangle_2471" data-name="Rectangle 2471" width="16.511" height="9.559" transform="translate(61.064 151.876) rotate(180)" fill="#c4c4c4" opacity="0.4"/>
    <rect id="Rectangle_2472" data-name="Rectangle 2472" width="38.236" height="5.214" transform="translate(74.967 124.068)" fill="#c4c4c4" opacity="0.4"/>
    <rect id="Rectangle_2473" data-name="Rectangle 2473" width="38.236" height="4.345" transform="translate(74.967 131.02)" fill="#c4c4c4" opacity="0.4"/>
    <rect id="Rectangle_2474" data-name="Rectangle 2474" width="38.236" height="4.345" transform="translate(74.967 136.234)" fill="#c4c4c4" opacity="0.4"/>
    <rect id="Rectangle_2475" data-name="Rectangle 2475" width="39.104" height="5.214" transform="translate(174.901 126.675)" fill="#c4c4c4" opacity="0.4"/>
    <rect id="Rectangle_2476" data-name="Rectangle 2476" width="39.104" height="5.214" transform="translate(174.901 131.889)" fill="#c4c4c4" opacity="0.4"/>
    <rect id="Rectangle_2477" data-name="Rectangle 2477" width="39.104" height="5.214" transform="translate(174.901 137.972)" fill="#c4c4c4" opacity="0.4"/>
    <rect id="Rectangle_2478" data-name="Rectangle 2478" width="38.236" height="4.345" transform="translate(74.967 142.317)" fill="#c4c4c4" opacity="0.4"/>
    <rect id="Rectangle_2479" data-name="Rectangle 2479" width="38.236" height="4.345" transform="translate(74.967 147.531)" fill="#c4c4c4" opacity="0.4"/>
    <rect id="Rectangle_2480" data-name="Rectangle 2480" width="38.236" height="5.214" transform="translate(74.967 152.745)" fill="#c4c4c4" opacity="0.4"/>
    <rect id="Rectangle_2481" data-name="Rectangle 2481" width="10.428" height="13.904" transform="translate(127.107 84.964)" fill="#c4c4c4" opacity="0.4"/>
    <rect id="Rectangle_2482" data-name="Rectangle 2482" width="10.428" height="13.904" transform="translate(160.997 98.867) rotate(180)" fill="#c4c4c4" opacity="0.4"/>
    <rect id="Rectangle_2483" data-name="Rectangle 2483" width="10.428" height="13.904" transform="translate(127.107 102.343)" fill="#c4c4c4" opacity="0.4"/>
    <rect id="Rectangle_2484" data-name="Rectangle 2484" width="10.428" height="13.904" transform="translate(160.997 116.247) rotate(180)" fill="#c4c4c4" opacity="0.4"/>
    <rect id="Rectangle_2485" data-name="Rectangle 2485" width="10.428" height="13.904" transform="translate(127.107 119.723)" fill="#c4c4c4" opacity="0.4"/>
    <rect id="Rectangle_2486" data-name="Rectangle 2486" width="10.428" height="13.904" transform="translate(160.997 133.627) rotate(180)" fill="#c4c4c4" opacity="0.4"/>
    <rect id="Rectangle_2487" data-name="Rectangle 2487" width="10.428" height="13.904" transform="translate(127.107 137.103)" fill="#c4c4c4" opacity="0.4"/>
    <rect id="Rectangle_2488" data-name="Rectangle 2488" width="10.428" height="13.904" transform="translate(160.997 151.007) rotate(180)" fill="#c4c4c4" opacity="0.4"/>
    <rect id="Rectangle_2489" data-name="Rectangle 2489" width="14.773" height="18.249" transform="translate(219.219 32.824)" fill="#c4c4c4" opacity="0.4"/>
    <rect id="Rectangle_2490" data-name="Rectangle 2490" width="14.773" height="18.249" transform="translate(219.219 46.728)" fill="#c4c4c4" opacity="0.4"/>
    <rect id="Rectangle_2491" data-name="Rectangle 2491" width="14.773" height="18.249" transform="translate(219.219 66.715)" fill="#c4c4c4" opacity="0.4"/>
    <rect id="Rectangle_2492" data-name="Rectangle 2492" width="14.773" height="18.249" transform="translate(219.219 87.571)" fill="#c4c4c4" opacity="0.4"/>
    <rect id="Rectangle_2493" data-name="Rectangle 2493" width="14.773" height="18.249" transform="translate(219.219 108.426)" fill="#c4c4c4" opacity="0.4"/>
    <rect id="Rectangle_2494" data-name="Rectangle 2494" width="14.773" height="17.38" transform="translate(219.219 129.282)" fill="#c4c4c4" opacity="0.4"/>
    <rect id="Rectangle_2495" data-name="Rectangle 2495" width="52.618" height="15.314" transform="translate(264.073 55.494)" fill="#c4c4c4" opacity="0.4"/>
    <rect id="Rectangle_2496" data-name="Rectangle 2496" width="52.139" height="15.642" transform="translate(264.407 81.488)" fill="#c4c4c4" opacity="0.4"/>
    <rect id="Rectangle_2497" data-name="Rectangle 2497" width="52.618" height="15.314" transform="translate(264.465 107.871)" fill="#c4c4c4" opacity="0.4"/>
    <rect id="Rectangle_2498" data-name="Rectangle 2498" width="53.008" height="14.773" transform="translate(264.407 134.496)" fill="#c4c4c4" opacity="0.4"/>
    <rect id="Rectangle_2499" data-name="Rectangle 2499" width="6.952" height="15.642" transform="translate(11.531 38.038)" fill="#c4c4c4" opacity="0.4"/>
    <path id="Path_10893" data-name="Path 10893" d="M232.52,521.149c.025-8.975,1.385-19.09,5.63-28.023a51.963,51.963,0,0,0,4.2-32.592,87.142,87.142,0,0,0-4.614-15.314" transform="translate(-189.317 -365.392)" fill="none" stroke="#535461" stroke-width="2"/>
    <path id="Path_10894" data-name="Path 10894" d="M241.423,394.758c0,4.029-7.3,15.707-7.3,15.707s-7.3-11.69-7.3-15.707a7.3,7.3,0,1,1,14.6,0Z" transform="translate(-185.859 -301.485)" fill="#c4c4c4"/>
    <path id="Path_10895" data-name="Path 10895" d="M272.07,445.744c-2.191,3.385-14.67,9.228-14.67,9.228s.224-13.779,2.415-17.16a7.3,7.3,0,1,1,12.256,7.932Z" transform="translate(-204.428 -333.79)" fill="#c4c4c4"/>
    <path id="Path_10896" data-name="Path 10896" d="M266.621,538.966c-3.6,1.814-17.321.557-17.321.557s7.151-11.78,10.751-13.594a7.3,7.3,0,1,1,6.57,13.037Z" transform="translate(-205.949 -399.369)" fill="#c4c4c4"/>
    <path id="Path_10898" data-name="Path 10898" d="M214.948,469.277c2.89,2.808,16.363,5.717,16.363,5.717s-3.3-13.378-6.192-16.186a7.3,7.3,0,0,0-10.17,10.469Z" transform="translate(-177.302 -348.895)" fill="#c4c4c4"/>
    <path id="Path_10899" data-name="Path 10899" d="M192.7,553.26c3.6,1.818,17.321.561,17.321.561s-7.151-11.78-10.747-13.594a7.3,7.3,0,1,0-6.574,13.034Z" transform="translate(-162.697 -405.408)" fill="#c4c4c4"/>
    <path id="Path_10901" data-name="Path 10901" d="M241.423,394.758c0,4.029-7.3,15.707-7.3,15.707s-7.3-11.69-7.3-15.707a7.3,7.3,0,1,1,14.6,0Z" transform="translate(-185.859 -301.485)" fill="#c4c4c4" opacity="0.25"/>
    <path id="Path_10902" data-name="Path 10902" d="M272.07,445.744c-2.191,3.385-14.67,9.228-14.67,9.228s.224-13.779,2.415-17.16a7.3,7.3,0,1,1,12.256,7.932Z" transform="translate(-204.428 -333.79)" fill="#c4c4c4" opacity="0.25"/>
    <path id="Path_10905" data-name="Path 10905" d="M214.948,469.277c2.89,2.808,16.363,5.717,16.363,5.717s-3.3-13.378-6.192-16.186a7.3,7.3,0,0,0-10.17,10.469Z" transform="translate(-177.302 -348.895)" fill="#c4c4c4" opacity="0.25"/>
    <path id="Path_10906" data-name="Path 10906" d="M192.7,553.26c3.6,1.818,17.321.561,17.321.561s-7.151-11.78-10.747-13.594a7.3,7.3,0,1,0-6.574,13.034Z" transform="translate(-162.697 -405.408)" fill="#c4c4c4" opacity="0.25"/>
    <path id="Path_10916" data-name="Path 10916" d="M898.422,567.442a5.722,5.722,0,0,1,.732-2.537,27.947,27.947,0,0,0,2.258-17.513,47.015,47.015,0,0,0-2.482-8.223" transform="translate(-592.48 -412.067)" fill="none" stroke="#535461" stroke-width="2"/>
    <path id="Path_10917" data-name="Path 10917" d="M900.573,512.157c0,2.168-3.927,8.45-3.927,8.45s-3.927-6.283-3.927-8.45a3.927,3.927,0,1,1,7.853,0Z" transform="translate(-590.275 -383.626)" fill="#c4c4c4"/>
    <path id="Path_10918" data-name="Path 10918" d="M917.035,539.65c-1.178,1.818-7.885,4.959-7.885,4.959s.122-7.406,1.3-9.224a3.927,3.927,0,0,1,6.585,4.264Z" transform="translate(-600.254 -400.96)" fill="#c4c4c4"/>
    <path id="Path_10919" data-name="Path 10919" d="M914.11,588.77c-1.936.86-9.31.264-9.31.264s3.844-5.594,5.776-6.454a4.173,4.173,0,0,1,5.123,1.6A3.273,3.273,0,0,1,914.11,588.77Z" transform="translate(-598.481 -433.883)" fill="#c4c4c4"/>
    <path id="Path_10921" data-name="Path 10921" d="M886.129,551.866c1.571,1.508,8.792,3.071,8.792,3.071s-1.771-7.19-3.326-8.7a3.927,3.927,0,1,0-5.466,5.627Z" transform="translate(-585.467 -408.566)" fill="#c4c4c4"/>
    <path id="Path_10924" data-name="Path 10924" d="M344.424,151.578h-2.7a1.893,1.893,0,1,0,0-3.781H319.839a1.893,1.893,0,1,0,0,3.781h2.7a1.893,1.893,0,0,0,0,3.785h-3.781a1.893,1.893,0,1,0,0,3.781h21.884a1.893,1.893,0,1,0,0-3.781h3.781a1.893,1.893,0,0,0,0-3.785Z" transform="translate(-240.492 -132.856)" fill="#c4c4c4" opacity="0.1"/>
    <path id="Path_10925" data-name="Path 10925" d="M590.425,272.578h-2.7a1.893,1.893,0,1,0,0-3.781H565.839a1.893,1.893,0,1,0,0,3.781h2.7a1.893,1.893,0,1,0,0,3.785H564.76a1.893,1.893,0,1,0,0,3.781h21.884a1.893,1.893,0,1,0,0-3.781h3.781a1.893,1.893,0,1,0,0-3.785Z" transform="translate(-389.894 -219.011)" fill="#c4c4c4" opacity="0.1"/>
    <path id="Path_10926" data-name="Path 10926" d="M1009.425,114.578h-2.7a1.893,1.893,0,1,0,0-3.781H984.839a1.893,1.893,0,1,0,0,3.781h2.7a1.893,1.893,0,0,0,0,3.785H983.76a1.893,1.893,0,1,0,0,3.781h21.884a1.893,1.893,0,1,0,0-3.781h3.781a1.893,1.893,0,1,0,0-3.785Z" transform="translate(-644.364 -110.385)" fill="#c4c4c4" opacity="0.1"/>
    <path id="Path_10947" data-name="Path 10947" d="M489.207,418.92s-1.033,4.995-1.237,7.657" transform="translate(-344.46 -321.793)" fill="#c4c4c4" opacity="0.1"/>
  </g>
</svg>
