<svg id="united_states" xmlns="http://www.w3.org/2000/svg" width="33.26" height="21.41" viewBox="0 0 33.26 21.41">
  <path id="Path_16890" data-name="Path 16890" d="M30.769,88.276H2.491A2.469,2.469,0,0,0,0,90.723v16.515a2.469,2.469,0,0,0,2.491,2.447H30.769a2.469,2.469,0,0,0,2.491-2.447V90.723A2.469,2.469,0,0,0,30.769,88.276Z" transform="translate(0 -88.276)" fill="#f5f5f5"/>
  <g id="Group_16771" data-name="Group 16771" transform="translate(0 0)">
    <path id="Path_16891" data-name="Path 16891" d="M2.109,89.923H35.1a2.489,2.489,0,0,0-2.354-1.647H4.463A2.489,2.489,0,0,0,2.109,89.923Z" transform="translate(-1.974 -88.276)" fill="#ff4b55"/>
    <rect id="Rectangle_4103" data-name="Rectangle 4103" width="33.26" height="1.647" transform="translate(0 6.588)" fill="#ff4b55"/>
    <rect id="Rectangle_4104" data-name="Rectangle 4104" width="33.26" height="1.647" transform="translate(0 3.294)" fill="#ff4b55"/>
    <path id="Path_16892" data-name="Path 16892" d="M0,244.182a.569.569,0,0,0,.573.563H33.26V243.1H0Z" transform="translate(0 -233.217)" fill="#ff4b55"/>
    <rect id="Rectangle_4105" data-name="Rectangle 4105" width="33.26" height="1.647" transform="translate(0 16.47)" fill="#ff4b55"/>
    <path id="Path_16893" data-name="Path 16893" d="M35.1,397.92H2.109a2.489,2.489,0,0,0,2.354,1.647H32.746A2.489,2.489,0,0,0,35.1,397.92Z" transform="translate(-1.974 -378.157)" fill="#ff4b55"/>
    <rect id="Rectangle_4106" data-name="Rectangle 4106" width="33.26" height="1.647" transform="translate(0 13.176)" fill="#ff4b55"/>
  </g>
  <path id="Path_16894" data-name="Path 16894" d="M.563,99.8H14.649a.563.563,0,0,0,.563-.563v-10.4a.563.563,0,0,0-.563-.563H2.447A2.447,2.447,0,0,0,0,90.722V99.24A.563.563,0,0,0,.563,99.8Z" transform="translate(0 -88.275)" fill="#41479b"/>
  <g id="Group_16772" data-name="Group 16772" transform="translate(0.91 1.257)">
    <path id="Path_16895" data-name="Path 16895" d="M14.925,108l.125.374.394,0a.053.053,0,0,1,.031.1l-.317.234.119.376a.053.053,0,0,1-.082.059l-.321-.229-.321.229a.053.053,0,0,1-.082-.059l.119-.376-.317-.234a.053.053,0,0,1,.031-.1l.394,0,.125-.374A.053.053,0,0,1,14.925,108Z" transform="translate(-14.253 -107.968)" fill="#f5f5f5"/>
    <path id="Path_16896" data-name="Path 16896" d="M14.925,138.659l.125.374.394,0a.053.053,0,0,1,.031.1l-.317.234.119.376a.053.053,0,0,1-.082.059l-.321-.229-.321.229a.053.053,0,0,1-.082-.059l.119-.376-.317-.234a.053.053,0,0,1,.031-.1l.394,0,.125-.374A.053.053,0,0,1,14.925,138.659Z" transform="translate(-14.253 -136.666)" fill="#f5f5f5"/>
    <path id="Path_16897" data-name="Path 16897" d="M14.925,169.313l.125.374.394,0a.053.053,0,0,1,.031.1l-.317.234.119.376a.053.053,0,0,1-.082.059l-.321-.229-.321.229a.053.053,0,0,1-.082-.059l.119-.376-.317-.234a.053.053,0,0,1,.031-.1l.394,0,.125-.374A.053.053,0,0,1,14.925,169.313Z" transform="translate(-14.253 -165.364)" fill="#f5f5f5"/>
    <path id="Path_16898" data-name="Path 16898" d="M14.925,199.967l.125.374.394,0a.053.053,0,0,1,.031.1l-.317.234.119.376a.053.053,0,0,1-.082.059l-.321-.229-.321.229a.053.053,0,0,1-.082-.059l.119-.376-.317-.234a.053.053,0,0,1,.031-.1l.394,0,.125-.374A.053.053,0,0,1,14.925,199.967Z" transform="translate(-14.253 -194.061)" fill="#f5f5f5"/>
    <path id="Path_16899" data-name="Path 16899" d="M14.925,230.622l.125.374.394,0a.053.053,0,0,1,.031.1l-.317.234.119.376a.053.053,0,0,1-.082.059l-.321-.229-.321.229a.053.053,0,0,1-.082-.059l.119-.376-.317-.234a.053.053,0,0,1,.031-.1l.394,0,.125-.374A.053.053,0,0,1,14.925,230.622Z" transform="translate(-14.253 -222.76)" fill="#f5f5f5"/>
    <path id="Path_16900" data-name="Path 16900" d="M38.718,123.034l.125.374.394,0a.053.053,0,0,1,.031.1l-.317.234.119.376a.053.053,0,0,1-.082.059l-.321-.229-.321.229a.053.053,0,0,1-.082-.059l.119-.376-.317-.234a.053.053,0,0,1,.031-.1l.394,0,.125-.374A.053.053,0,0,1,38.718,123.034Z" transform="translate(-36.527 -122.038)" fill="#f5f5f5"/>
    <path id="Path_16901" data-name="Path 16901" d="M38.718,153.688l.125.374.394,0a.053.053,0,0,1,.031.1l-.317.234.119.376a.053.053,0,0,1-.082.059l-.321-.229-.321.229a.053.053,0,0,1-.082-.059l.119-.376-.317-.234a.053.053,0,0,1,.031-.1l.394,0,.125-.374A.053.053,0,0,1,38.718,153.688Z" transform="translate(-36.527 -150.736)" fill="#f5f5f5"/>
    <path id="Path_16902" data-name="Path 16902" d="M38.718,184.342l.125.374.394,0a.053.053,0,0,1,.031.1l-.317.234.119.376a.053.053,0,0,1-.082.059l-.321-.229-.321.229a.053.053,0,0,1-.082-.059l.119-.376-.317-.234a.053.053,0,0,1,.031-.1l.394,0,.125-.374A.053.053,0,0,1,38.718,184.342Z" transform="translate(-36.527 -179.434)" fill="#f5f5f5"/>
    <path id="Path_16903" data-name="Path 16903" d="M38.718,215l.125.374.394,0a.053.053,0,0,1,.031.1l-.317.234.119.376a.053.053,0,0,1-.082.059l-.321-.229-.321.229a.053.053,0,0,1-.082-.059l.119-.376-.317-.234a.053.053,0,0,1,.031-.1l.394,0,.125-.374A.053.053,0,0,1,38.718,215Z" transform="translate(-36.527 -208.132)" fill="#f5f5f5"/>
    <path id="Path_16904" data-name="Path 16904" d="M62.511,108l.125.374.394,0a.053.053,0,0,1,.031.1l-.317.234.119.376a.053.053,0,0,1-.082.059l-.321-.229-.321.229a.053.053,0,0,1-.082-.059l.119-.376-.317-.234a.053.053,0,0,1,.031-.1l.394,0L62.41,108A.053.053,0,0,1,62.511,108Z" transform="translate(-58.801 -107.968)" fill="#f5f5f5"/>
    <path id="Path_16905" data-name="Path 16905" d="M62.511,138.659l.125.374.394,0a.053.053,0,0,1,.031.1l-.317.234.119.376a.053.053,0,0,1-.082.059l-.321-.229-.321.229a.053.053,0,0,1-.082-.059l.119-.376-.317-.234a.053.053,0,0,1,.031-.1l.394,0,.125-.374A.053.053,0,0,1,62.511,138.659Z" transform="translate(-58.801 -136.666)" fill="#f5f5f5"/>
    <path id="Path_16906" data-name="Path 16906" d="M62.511,169.313l.125.374.394,0a.053.053,0,0,1,.031.1l-.317.234.119.376a.053.053,0,0,1-.082.059l-.321-.229-.321.229a.053.053,0,0,1-.082-.059l.119-.376-.317-.234a.053.053,0,0,1,.031-.1l.394,0,.125-.374A.053.053,0,0,1,62.511,169.313Z" transform="translate(-58.801 -165.364)" fill="#f5f5f5"/>
    <path id="Path_16907" data-name="Path 16907" d="M62.511,199.967l.125.374.394,0a.053.053,0,0,1,.031.1l-.317.234.119.376a.053.053,0,0,1-.082.059l-.321-.229-.321.229a.053.053,0,0,1-.082-.059l.119-.376-.317-.234a.053.053,0,0,1,.031-.1l.394,0,.125-.374A.053.053,0,0,1,62.511,199.967Z" transform="translate(-58.801 -194.061)" fill="#f5f5f5"/>
    <path id="Path_16908" data-name="Path 16908" d="M62.511,230.622l.125.374.394,0a.053.053,0,0,1,.031.1l-.317.234.119.376a.053.053,0,0,1-.082.059l-.321-.229-.321.229a.053.053,0,0,1-.082-.059l.119-.376-.317-.234a.053.053,0,0,1,.031-.1l.394,0,.125-.374A.053.053,0,0,1,62.511,230.622Z" transform="translate(-58.801 -222.759)" fill="#f5f5f5"/>
    <path id="Path_16909" data-name="Path 16909" d="M86.305,123.034l.125.374.394,0a.053.053,0,0,1,.031.1l-.317.234.119.376a.053.053,0,0,1-.082.059l-.321-.229-.321.229a.053.053,0,0,1-.082-.059l.119-.376-.317-.234a.053.053,0,0,1,.031-.1l.394,0,.125-.374A.053.053,0,0,1,86.305,123.034Z" transform="translate(-81.077 -122.038)" fill="#f5f5f5"/>
    <path id="Path_16910" data-name="Path 16910" d="M86.305,153.688l.125.374.394,0a.053.053,0,0,1,.031.1l-.317.234.119.376a.053.053,0,0,1-.082.059l-.321-.229-.321.229a.053.053,0,0,1-.082-.059l.119-.376-.317-.234a.053.053,0,0,1,.031-.1l.394,0,.125-.374A.053.053,0,0,1,86.305,153.688Z" transform="translate(-81.077 -150.736)" fill="#f5f5f5"/>
    <path id="Path_16911" data-name="Path 16911" d="M86.305,184.342l.125.374.394,0a.053.053,0,0,1,.031.1l-.317.234.119.376a.053.053,0,0,1-.082.059l-.321-.229-.321.229a.053.053,0,0,1-.082-.059l.119-.376-.317-.234a.053.053,0,0,1,.031-.1l.394,0,.125-.374A.053.053,0,0,1,86.305,184.342Z" transform="translate(-81.077 -179.434)" fill="#f5f5f5"/>
    <path id="Path_16912" data-name="Path 16912" d="M86.305,215l.125.374.394,0a.053.053,0,0,1,.031.1l-.317.234.119.376a.053.053,0,0,1-.082.059l-.321-.229-.321.229a.053.053,0,0,1-.082-.059l.119-.376-.317-.234a.053.053,0,0,1,.031-.1l.394,0L86.2,215A.053.053,0,0,1,86.305,215Z" transform="translate(-81.077 -208.132)" fill="#f5f5f5"/>
    <path id="Path_16913" data-name="Path 16913" d="M110.1,108l.125.374.394,0a.053.053,0,0,1,.031.1l-.317.234.119.376a.053.053,0,0,1-.082.059l-.321-.229-.321.229a.053.053,0,0,1-.082-.059l.119-.376-.317-.234a.053.053,0,0,1,.031-.1l.394,0L110,108A.053.053,0,0,1,110.1,108Z" transform="translate(-103.35 -107.968)" fill="#f5f5f5"/>
    <path id="Path_16914" data-name="Path 16914" d="M110.1,138.659l.125.374.394,0a.053.053,0,0,1,.031.1l-.317.234.119.376a.053.053,0,0,1-.082.059l-.321-.229-.321.229a.053.053,0,0,1-.082-.059l.119-.376-.317-.234a.053.053,0,0,1,.031-.1l.394,0,.125-.374A.053.053,0,0,1,110.1,138.659Z" transform="translate(-103.35 -136.666)" fill="#f5f5f5"/>
    <path id="Path_16915" data-name="Path 16915" d="M110.1,169.313l.125.374.394,0a.053.053,0,0,1,.031.1l-.317.234.119.376a.053.053,0,0,1-.082.059l-.321-.229-.321.229a.053.053,0,0,1-.082-.059l.119-.376-.317-.234a.053.053,0,0,1,.031-.1l.394,0,.125-.374A.053.053,0,0,1,110.1,169.313Z" transform="translate(-103.35 -165.364)" fill="#f5f5f5"/>
    <path id="Path_16916" data-name="Path 16916" d="M110.1,199.967l.125.374.394,0a.053.053,0,0,1,.031.1l-.317.234.119.376a.053.053,0,0,1-.082.059l-.321-.229-.321.229a.053.053,0,0,1-.082-.059l.119-.376-.317-.234a.053.053,0,0,1,.031-.1l.394,0,.125-.374A.053.053,0,0,1,110.1,199.967Z" transform="translate(-103.35 -194.061)" fill="#f5f5f5"/>
    <path id="Path_16917" data-name="Path 16917" d="M110.1,230.622l.125.374.394,0a.053.053,0,0,1,.031.1l-.317.234.119.376a.053.053,0,0,1-.082.059l-.321-.229-.321.229a.053.053,0,0,1-.082-.059l.119-.376-.317-.234a.053.053,0,0,1,.031-.1l.394,0,.125-.374A.053.053,0,0,1,110.1,230.622Z" transform="translate(-103.35 -222.759)" fill="#f5f5f5"/>
    <path id="Path_16918" data-name="Path 16918" d="M133.891,123.034l.125.374.394,0a.053.053,0,0,1,.031.1l-.317.234.119.376a.053.053,0,0,1-.082.059l-.321-.229-.321.229a.053.053,0,0,1-.082-.059l.119-.376-.317-.234a.053.053,0,0,1,.031-.1l.394,0,.125-.374A.053.053,0,0,1,133.891,123.034Z" transform="translate(-125.626 -122.038)" fill="#f5f5f5"/>
    <path id="Path_16919" data-name="Path 16919" d="M133.891,153.688l.125.374.394,0a.053.053,0,0,1,.031.1l-.317.234.119.376a.053.053,0,0,1-.082.059l-.321-.229-.321.229a.053.053,0,0,1-.082-.059l.119-.376-.317-.234a.053.053,0,0,1,.031-.1l.394,0,.125-.374A.053.053,0,0,1,133.891,153.688Z" transform="translate(-125.626 -150.736)" fill="#f5f5f5"/>
    <path id="Path_16920" data-name="Path 16920" d="M133.891,184.342l.125.374.394,0a.053.053,0,0,1,.031.1l-.317.234.119.376a.053.053,0,0,1-.082.059l-.321-.229-.321.229a.053.053,0,0,1-.082-.059l.119-.376-.317-.234a.053.053,0,0,1,.031-.1l.394,0,.125-.374A.053.053,0,0,1,133.891,184.342Z" transform="translate(-125.626 -179.434)" fill="#f5f5f5"/>
    <path id="Path_16921" data-name="Path 16921" d="M133.891,215l.125.374.394,0a.053.053,0,0,1,.031.1l-.317.234.119.376a.053.053,0,0,1-.082.059l-.321-.229-.321.229a.053.053,0,0,1-.082-.059l.119-.376-.317-.234a.053.053,0,0,1,.031-.1l.394,0,.125-.374A.053.053,0,0,1,133.891,215Z" transform="translate(-125.626 -208.132)" fill="#f5f5f5"/>
    <path id="Path_16922" data-name="Path 16922" d="M157.685,108l.125.374.394,0a.053.053,0,0,1,.031.1l-.317.234.119.376a.053.053,0,0,1-.082.059l-.321-.229-.321.229a.053.053,0,0,1-.082-.059l.119-.376-.317-.234a.053.053,0,0,1,.031-.1l.394,0,.125-.374A.053.053,0,0,1,157.685,108Z" transform="translate(-147.901 -107.968)" fill="#f5f5f5"/>
    <path id="Path_16923" data-name="Path 16923" d="M157.685,138.659l.125.374.394,0a.053.053,0,0,1,.031.1l-.317.234.119.376a.053.053,0,0,1-.082.059l-.321-.229-.321.229a.053.053,0,0,1-.082-.059l.119-.376-.317-.234a.053.053,0,0,1,.031-.1l.394,0,.125-.374A.053.053,0,0,1,157.685,138.659Z" transform="translate(-147.901 -136.666)" fill="#f5f5f5"/>
    <path id="Path_16924" data-name="Path 16924" d="M157.685,169.313l.125.374.394,0a.053.053,0,0,1,.031.1l-.317.234.119.376a.053.053,0,0,1-.082.059l-.321-.229-.321.229a.053.053,0,0,1-.082-.059l.119-.376-.317-.234a.053.053,0,0,1,.031-.1l.394,0,.125-.374A.053.053,0,0,1,157.685,169.313Z" transform="translate(-147.901 -165.364)" fill="#f5f5f5"/>
    <path id="Path_16925" data-name="Path 16925" d="M157.685,199.967l.125.374.394,0a.053.053,0,0,1,.031.1l-.317.234.119.376a.053.053,0,0,1-.082.059l-.321-.229-.321.229a.053.053,0,0,1-.082-.059l.119-.376-.317-.234a.053.053,0,0,1,.031-.1l.394,0,.125-.374A.053.053,0,0,1,157.685,199.967Z" transform="translate(-147.901 -194.061)" fill="#f5f5f5"/>
    <path id="Path_16926" data-name="Path 16926" d="M157.685,230.622l.125.374.394,0a.053.053,0,0,1,.031.1l-.317.234.119.376a.053.053,0,0,1-.082.059l-.321-.229-.321.229a.053.053,0,0,1-.082-.059l.119-.376-.317-.234a.053.053,0,0,1,.031-.1l.394,0,.125-.374A.053.053,0,0,1,157.685,230.622Z" transform="translate(-147.901 -222.759)" fill="#f5f5f5"/>
    <path id="Path_16927" data-name="Path 16927" d="M181.478,123.034l.125.374.394,0a.053.053,0,0,1,.031.1l-.317.234.119.376a.053.053,0,0,1-.082.059l-.321-.229-.321.229a.053.053,0,0,1-.082-.059l.119-.376-.317-.234a.053.053,0,0,1,.031-.1l.394,0,.125-.374A.053.053,0,0,1,181.478,123.034Z" transform="translate(-170.175 -122.038)" fill="#f5f5f5"/>
    <path id="Path_16928" data-name="Path 16928" d="M181.478,153.688l.125.374.394,0a.053.053,0,0,1,.031.1l-.317.234.119.376a.053.053,0,0,1-.082.059l-.321-.229-.321.229a.053.053,0,0,1-.082-.059l.119-.376-.317-.234a.053.053,0,0,1,.031-.1l.394,0,.125-.374A.053.053,0,0,1,181.478,153.688Z" transform="translate(-170.175 -150.736)" fill="#f5f5f5"/>
    <path id="Path_16929" data-name="Path 16929" d="M181.478,184.342l.125.374.394,0a.053.053,0,0,1,.031.1l-.317.234.119.376a.053.053,0,0,1-.082.059l-.321-.229-.321.229a.053.053,0,0,1-.082-.059l.119-.376-.317-.234a.053.053,0,0,1,.031-.1l.394,0,.125-.374A.053.053,0,0,1,181.478,184.342Z" transform="translate(-170.175 -179.434)" fill="#f5f5f5"/>
    <path id="Path_16930" data-name="Path 16930" d="M181.478,215l.125.374.394,0a.053.053,0,0,1,.031.1l-.317.234.119.376a.053.053,0,0,1-.082.059l-.321-.229-.321.229a.053.053,0,0,1-.082-.059l.119-.376-.317-.234a.053.053,0,0,1,.031-.1l.394,0,.125-.374A.053.053,0,0,1,181.478,215Z" transform="translate(-170.175 -208.132)" fill="#f5f5f5"/>
    <path id="Path_16931" data-name="Path 16931" d="M205.272,108l.125.374.394,0a.053.053,0,0,1,.031.1l-.317.234.119.376a.053.053,0,0,1-.082.059l-.321-.229-.321.229a.053.053,0,0,1-.082-.059l.119-.376-.317-.234a.053.053,0,0,1,.031-.1l.394,0,.125-.374A.053.053,0,0,1,205.272,108Z" transform="translate(-192.451 -107.968)" fill="#f5f5f5"/>
    <path id="Path_16932" data-name="Path 16932" d="M205.272,138.659l.125.374.394,0a.053.053,0,0,1,.031.1l-.317.234.119.376a.053.053,0,0,1-.082.059l-.321-.229-.321.229a.053.053,0,0,1-.082-.059l.119-.376-.317-.234a.053.053,0,0,1,.031-.1l.394,0,.125-.374A.053.053,0,0,1,205.272,138.659Z" transform="translate(-192.451 -136.666)" fill="#f5f5f5"/>
    <path id="Path_16933" data-name="Path 16933" d="M205.272,169.313l.125.374.394,0a.053.053,0,0,1,.031.1l-.317.234.119.376a.053.053,0,0,1-.082.059l-.321-.229-.321.229a.053.053,0,0,1-.082-.059l.119-.376-.317-.234a.053.053,0,0,1,.031-.1l.394,0,.125-.374A.053.053,0,0,1,205.272,169.313Z" transform="translate(-192.451 -165.364)" fill="#f5f5f5"/>
    <path id="Path_16934" data-name="Path 16934" d="M205.272,199.967l.125.374.394,0a.053.053,0,0,1,.031.1l-.317.234.119.376a.053.053,0,0,1-.082.059l-.321-.229-.321.229a.053.053,0,0,1-.082-.059l.119-.376-.317-.234a.053.053,0,0,1,.031-.1l.394,0,.125-.374A.053.053,0,0,1,205.272,199.967Z" transform="translate(-192.451 -194.061)" fill="#f5f5f5"/>
    <path id="Path_16935" data-name="Path 16935" d="M205.272,230.622l.125.374.394,0a.053.053,0,0,1,.031.1l-.317.234.119.376a.053.053,0,0,1-.082.059l-.321-.229-.321.229a.053.053,0,0,1-.082-.059l.119-.376-.317-.234a.053.053,0,0,1,.031-.1l.394,0,.125-.374A.053.053,0,0,1,205.272,230.622Z" transform="translate(-192.451 -222.759)" fill="#f5f5f5"/>
  </g>
</svg>
