<svg id="starapp" xmlns="http://www.w3.org/2000/svg" width="30" height="30" viewBox="0 0 30 30">
  <g id="Ellipse_6186" data-name="Ellipse 6186" fill="#fff" stroke="#f3f3f3" stroke-width="1">
    <circle cx="15" cy="15" r="15" stroke="none"/>
    <circle cx="15" cy="15" r="14.5" fill="none"/>
  </g>
  <path id="wallet" d="M12.655,3.618a.513.513,0,0,0,.513-.513V2.566A2.569,2.569,0,0,0,10.6,0s-8.04,0-8.06,0a2.618,2.618,0,0,0-1.8.805A2.528,2.528,0,0,0,.039,2.655c0,.013,0,7.4,0,7.4a3.083,3.083,0,0,0,3.079,3.079H10.6a2.569,2.569,0,0,0,2.566-2.566V6.672A2.569,2.569,0,0,0,10.6,4.105h-8A1.536,1.536,0,0,1,1.065,2.64a1.512,1.512,0,0,1,.423-1.123,1.587,1.587,0,0,1,1.143-.489l7.97,0a1.542,1.542,0,0,1,1.541,1.541v.539a.513.513,0,0,0,.513.513ZM2.6,5.131h8a1.542,1.542,0,0,1,1.541,1.541v3.894A1.542,1.542,0,0,1,10.6,12.107H3.117a2.056,2.056,0,0,1-2.054-2.054V4.62A2.558,2.558,0,0,0,2.6,5.131Z" transform="translate(8.397 8.932)" fill="#3b3b3b"/>
  <path id="wallet-2" data-name="wallet" d="M11.116,8.619a.641.641,0,1,1-.641-.641A.641.641,0,0,1,11.116,8.619Zm0-6.052a.513.513,0,0,0-.513-.513h-8a.513.513,0,0,0,0,1.026h8A.513.513,0,0,0,11.116,2.566Z" transform="translate(8.397 8.932)" fill="#28c1ed"/>
</svg>
