<svg xmlns="http://www.w3.org/2000/svg" width="27.247" height="27.365" viewBox="0 0 27.247 27.365">
  <g id="svgexport-16" transform="translate(0)">
    <path id="Path_36206" data-name="Path 36206" d="M.583,27.365a.582.582,0,0,1-.562-.736l1.779-6.5a13.57,13.57,0,1,1,11.878,7.008h-.006A13.6,13.6,0,0,1,7.394,25.6L.731,27.346A.586.586,0,0,1,.583,27.365Zm0,0" transform="translate(-0.001)" fill="#e5e5e5"/>
    <path id="Path_36207" data-name="Path 36207" d="M10.895,37.1l1.843-6.729a12.99,12.99,0,1,1,11.255,6.5h-.006a12.978,12.978,0,0,1-6.207-1.581Zm7.2-4.156.394.234a10.782,10.782,0,0,0,5.495,1.5h0a10.795,10.795,0,1,0-9.145-5.058l.257.408-1.091,3.983Zm0,0" transform="translate(-10.316 -10.315)" fill="#fff"/>
    <path id="Path_36208" data-name="Path 36208" d="M19.344,44.685l1.779-6.5a12.541,12.541,0,1,1,10.867,6.28h-.006a12.539,12.539,0,0,1-5.993-1.526Zm0,0" transform="translate(-18.315 -18.351)" fill="#64b161"/>
    <g id="Group_70362" data-name="Group 70362" transform="translate(0.579 0.58)">
      <path id="Path_36209" data-name="Path 36209" d="M10.895,37.1l1.843-6.729a12.99,12.99,0,1,1,11.255,6.5h-.006a12.978,12.978,0,0,1-6.207-1.581Zm7.2-4.156.394.234a10.782,10.782,0,0,0,5.495,1.5h0a10.795,10.795,0,1,0-9.145-5.058l.257.408-1.091,3.983Zm0,0" transform="translate(-10.895 -10.895)" fill="#fff"/>
      <path id="Path_36210" data-name="Path 36210" d="M135.813,142.179c-.244-.538-.5-.549-.733-.558-.19-.008-.407-.008-.624-.008a1.2,1.2,0,0,0-.869.4,3.611,3.611,0,0,0-1.141,2.7,6.26,6.26,0,0,0,1.331,3.343c.163.216,2.254,3.583,5.566,4.879,2.753,1.077,3.313.863,3.91.809a3.291,3.291,0,0,0,2.2-1.537,2.678,2.678,0,0,0,.19-1.537c-.082-.135-.3-.215-.625-.377s-1.928-.944-2.227-1.051-.516-.162-.733.162-.841,1.051-1.032,1.266-.38.243-.706.081a8.927,8.927,0,0,1-2.62-1.6,9.749,9.749,0,0,1-1.813-2.238c-.19-.323,0-.483.143-.659a9.745,9.745,0,0,0,.814-1.105.591.591,0,0,0-.027-.566C136.735,144.416,136.1,142.818,135.813,142.179Zm0,0" transform="translate(-125.974 -134.6)" fill="#fff" fill-rule="evenodd"/>
    </g>
  </g>
</svg>
